<?xml version="1.0" encoding="UTF-8"?>
<svg version="1.1" xmlns="http://www.w3.org/2000/svg" width="357" height="99">
<path d="M0 0 C3.0625 0.8125 3.0625 0.8125 5.3828125 1.8515625 C11.86166853 4.17488405 19.42111894 3.00454275 26.0625 1.8125 C27.0525 2.1425 28.0425 2.4725 29.0625 2.8125 C34.22176314 3.23970013 39.19176643 3.53924152 43.9375 1.25 C47.53099903 -0.40300955 48.40237385 -0.45988113 52.0625 0.8125 C54.7734375 3.140625 54.7734375 3.140625 57.4375 6.0625 C58.33210938 7.01640625 59.22671875 7.9703125 60.1484375 8.953125 C62.0625 11.8125 62.0625 11.8125 61.98046875 14.49609375 C61.0625 16.8125 61.0625 16.8125 59 19.625 C55.51633596 25.35618923 57.02528715 30.70509194 58.125 37 C60.23611814 50.13753377 58.1975276 61.96652068 50.75 73.0625 C43.73981925 82.44398925 33.52326033 92.47659047 21.5 94.375 C12.19073789 94.08138691 4.25605618 85.67571813 -1.77734375 79.35546875 C-9.58723723 70.16154352 -12.45880496 59.94904858 -12.1875 48.0625 C-12.17976562 46.68384766 -12.17976562 46.68384766 -12.171875 45.27734375 C-12.1219504 40.96510626 -11.83338846 37.03842126 -10.9375 32.8125 C-10.28264895 27.02798241 -11.52648255 24.26537374 -14.94140625 19.8046875 C-15.9375 17.8125 -15.9375 17.8125 -15.828125 15.390625 C-14.74648631 12.25956564 -13.2295615 10.24108668 -11.125 7.6875 C-10.43792969 6.83929687 -9.75085938 5.99109375 -9.04296875 5.1171875 C-4.12743424 -0.26345325 -4.12743424 -0.26345325 0 0 Z " fill="#098438" transform="translate(15.9375,2.1875)"/>
<path d="M0 0 C3.0625 0.8125 3.0625 0.8125 5.3828125 1.8515625 C11.86166853 4.17488405 19.42111894 3.00454275 26.0625 1.8125 C27.0525 2.1425 28.0425 2.4725 29.0625 2.8125 C34.22176314 3.23970013 39.19176643 3.53924152 43.9375 1.25 C47.53099903 -0.40300955 48.40237385 -0.45988113 52.0625 0.8125 C54.7734375 3.140625 54.7734375 3.140625 57.4375 6.0625 C58.33210938 7.01640625 59.22671875 7.9703125 60.1484375 8.953125 C62.0625 11.8125 62.0625 11.8125 61.98046875 14.49609375 C61.0625 16.8125 61.0625 16.8125 59 19.625 C55.51633596 25.35618923 57.02528715 30.70509194 58.125 37 C60.23611814 50.13753377 58.1975276 61.96652068 50.75 73.0625 C43.73981925 82.44398925 33.52326033 92.47659047 21.5 94.375 C12.19073789 94.08138691 4.25605618 85.67571813 -1.77734375 79.35546875 C-9.58723723 70.16154352 -12.45880496 59.94904858 -12.1875 48.0625 C-12.17976562 46.68384766 -12.17976562 46.68384766 -12.171875 45.27734375 C-12.1219504 40.96510626 -11.83338846 37.03842126 -10.9375 32.8125 C-10.28264895 27.02798241 -11.52648255 24.26537374 -14.94140625 19.8046875 C-15.9375 17.8125 -15.9375 17.8125 -15.828125 15.390625 C-14.74648631 12.25956564 -13.2295615 10.24108668 -11.125 7.6875 C-10.43792969 6.83929687 -9.75085938 5.99109375 -9.04296875 5.1171875 C-4.12743424 -0.26345325 -4.12743424 -0.26345325 0 0 Z M-0.9375 6.8125 C-2.5875 8.7925 -4.2375 10.7725 -5.9375 12.8125 C-5.64875 13.51375 -5.36 14.215 -5.0625 14.9375 C-4.69125 15.88625 -4.32 16.835 -3.9375 17.8125 C-3.56625 18.72 -3.195 19.6275 -2.8125 20.5625 C-1.50241457 25.42853158 -0.94872908 30.44957107 -2.9296875 35.18359375 C-6.53586964 44.5904177 -3.71791482 55.88978178 0.0625 64.8125 C4.4689432 73.2603556 11.32269633 81.38333459 20.1953125 85.25 C23.96149225 86.38458135 26.53000054 85.57717632 29.96484375 83.86328125 C40.24931879 77.92157878 46.94402737 69.24741003 50.484375 57.98828125 C52.81305132 49.22427645 52.6342432 41.4921333 50.0625 32.8125 C49.34407 26.34663001 50.6386069 21.77123719 53.0625 15.8125 C53.51094853 11.68637385 53.51094853 11.68637385 50.5625 9.0625 C49.7375 8.32 48.9125 7.5775 48.0625 6.8125 C47.24458984 7.13734375 47.24458984 7.13734375 46.41015625 7.46875 C39.45992244 10.03499018 33.59772606 10.90963912 26.4375 8.6875 C22.24534299 7.60064448 20.15680507 8.5418536 16.0625 9.8125 C9.67357125 10.54035264 4.91310774 9.36549247 -0.9375 6.8125 Z " fill="#F4F3F3" transform="translate(15.9375,2.1875)"/>
<path d="M0 0 C1.134375 0.495 2.26875 0.99 3.4375 1.5 C9.72997551 3.83752171 15.31525153 3.50769737 21.75 1.875 C25.64543749 0.9078569 27.31051886 1.33973349 31 3 C37.77117573 3.8548779 43.64552569 2.22870915 50 0 C50.66 0.99 51.32 1.98 52 3 C51.34 3.33 50.68 3.66 50 4 C50 3.34 50 2.68 50 2 C49.34 2.66 48.68 3.32 48 4 C48.20625 4.61875 48.4125 5.2375 48.625 5.875 C48.74875 6.57625 48.8725 7.2775 49 8 C46.79051579 10.9478156 45.5311977 11.90251428 41.87109375 12.57421875 C40.17146484 12.63029297 40.17146484 12.63029297 38.4375 12.6875 C32.1192847 12.72259131 32.1192847 12.72259131 27 16 C25.68 16 24.36 16 23 16 C22.01 16.33 21.02 16.66 20 17 C20 22.61 20 28.22 20 34 C16.535 34.495 16.535 34.495 13 35 C11.05758039 37.5335908 11 38.78187214 11 42 C14.96 42.33 18.92 42.66 23 43 C23 43.99 23 44.98 23 46 C24.32 46 25.64 46 27 46 C27 45.01 27 44.02 27 43 C27.84304687 42.93941406 28.68609375 42.87882812 29.5546875 42.81640625 C30.65039062 42.73261719 31.74609375 42.64882813 32.875 42.5625 C33.96554688 42.48128906 35.05609375 42.40007813 36.1796875 42.31640625 C38.94728971 42.16998297 38.94728971 42.16998297 41 41 C40.67 42.32 40.34 43.64 40 45 C39.40832031 44.94199219 38.81664062 44.88398437 38.20703125 44.82421875 C32.65539059 44.47439259 32.65539059 44.47439259 28.0625 47.5 C27.381875 48.325 26.70125 49.15 26 50 C25.34 50 24.68 50 24 50 C23.525625 49.360625 23.05125 48.72125 22.5625 48.0625 C21.0908635 45.71627037 21.0908635 45.71627037 18 45 C13.02836469 44.53526542 13.02836469 44.53526542 8.625 46.5625 C6.46461749 49.80307376 6.06812554 52.11684403 6 56 C7.34562399 58.94755732 8.08554544 60.54277272 11 62 C16.4541414 62.45055162 16.4541414 62.45055162 21.4375 60.6875 C23.23686957 58.97690387 23.23686957 58.97690387 24 56 C24.66 56 25.32 56 26 56 C27.01866229 57.65532623 28.01810813 59.32260138 29 61 C32.19581591 62.59790796 35.53137768 62.51362292 39 62 C41.7905817 60.10183458 41.7905817 60.10183458 44 58 C44.99 58 45.98 58 47 58 C46.24967659 64.66954141 41.65630101 68.52730708 37 73 C32.83060757 76.31895679 28.46869668 79.22321211 23 79 C13.39278532 75.493184 6.19477659 67.8422647 1.5625 58.9375 C-2.65009756 49.66044998 -5.75128012 38.33674698 -2.00390625 28.34375 C-1.67261719 27.5703125 -1.34132813 26.796875 -1 26 C-0.11867642 19.62471121 -1.61766979 14.85656176 -4 9 C-4 4.31908701 -3.00354129 3.37898396 0 0 Z " fill="#0A8338" transform="translate(15,9)"/>
<path d="M0 0 C2.67366928 0.07877362 5.32439385 0.04777868 8 0 C8 3 8 3 6.625 4.5 C6.08875 4.995 5.5525 5.49 5 6 C3.0549 8.91765 2.54723683 10.62537285 2 14 C2.66 14 3.32 14 4 14 C4 14.99 4 15.98 4 17 C0.7 17 -2.6 17 -6 17 C-6 16.01 -6 15.02 -6 14 C-5.34 13.67 -4.68 13.34 -4 13 C-5.30155006 8.92035719 -5.30155006 8.92035719 -7 5 C-8.65 5.33 -10.3 5.66 -12 6 C-12.495 5.01 -12.495 5.01 -13 4 C-13 6.97 -13 9.94 -13 13 C-12.01 13.495 -12.01 13.495 -11 14 C-11 14.99 -11 15.98 -11 17 C-14.3 17 -17.6 17 -21 17 C-21 16.01 -21 15.02 -21 14 C-20.34 13.67 -19.68 13.34 -19 13 C-19 10.03 -19 7.06 -19 4 C-19.33 4.66 -19.66 5.32 -20 6 C-21.32 6 -22.64 6 -24 6 C-24 8.64 -24 11.28 -24 14 C-23.34 14 -22.68 14 -22 14 C-22 14.99 -22 15.98 -22 17 C-38 17 -54 17 -70 17 C-70 16.01 -70 15.02 -70 14 C-69.34 14 -68.68 14 -68 14 C-68 10.37 -68 6.74 -68 3 C-68.66 3 -69.32 3 -70 3 C-70.19335938 3.59167969 -70.38671875 4.18335938 -70.5859375 4.79296875 C-71.94414719 8.9146645 -73.32050585 12.9950524 -75 17 C-76.65 17 -78.3 17 -80 17 C-81.65 12.71 -83.3 8.42 -85 4 C-85.33 4 -85.66 4 -86 4 C-86.0272415 5.41655793 -86.04650467 6.83327045 -86.0625 8.25 C-86.07410156 9.03890625 -86.08570313 9.8278125 -86.09765625 10.640625 C-86.06703502 13.30478142 -86.06703502 13.30478142 -85 17 C-87.97 17 -90.94 17 -94 17 C-94 16.01 -94 15.02 -94 14 C-93.34 14 -92.68 14 -92 14 C-92 10.37 -92 6.74 -92 3 C-92.66 3.33 -93.32 3.66 -94 4 C-94.46954261 7.04581269 -94.46954261 7.04581269 -94.625 10.5625 C-94.69976562 11.76003906 -94.77453125 12.95757812 -94.8515625 14.19140625 C-94.90054688 15.11824219 -94.94953125 16.04507813 -95 17 C-99.55689278 16.39496718 -99.55689278 16.39496718 -101.58203125 14.58984375 C-102.72135417 13.05989583 -103.86067708 11.52994792 -105 10 C-105 11.32 -105 12.64 -105 14 C-104.34 14 -103.68 14 -103 14 C-103 14.99 -103 15.98 -103 17 C-106.66666667 17 -110.33333333 17 -114 17 C-114.75152344 17.05800781 -115.50304687 17.11601563 -116.27734375 17.17578125 C-118.91759509 17.31147699 -121.37590614 17.33073156 -124 17 C-126.56323013 14.66293724 -126.92634074 13.0743472 -127.16015625 9.6640625 C-127.1848041 7.43167144 -127.1310677 5.22815095 -127 3 C-127.66 3 -128.32 3 -129 3 C-129 2.01 -129 1.02 -129 0 C-126.03 0 -123.06 0 -120 0 C-120.29296875 2.24609375 -120.5859375 4.4921875 -120.87890625 6.73828125 C-121.14755178 9.16817116 -121.14755178 9.16817116 -120 12 C-119.01 12 -118.02 12 -117 12 C-116.67 9.03 -116.34 6.06 -116 3 C-116.66 3 -117.32 3 -118 3 C-118 2.01 -118 1.02 -118 0 C-106.51479821 -1.0735426 -106.51479821 -1.0735426 -102.80078125 1.55859375 C-101.34583827 3.30945733 -100.1093592 5.01429769 -99 7 C-99 5.68 -99 4.36 -99 3 C-99.66 3 -100.32 3 -101 3 C-101 2.01 -101 1.02 -101 0 C-93.41 0 -85.82 0 -78 0 C-77.505 2.97 -77.505 2.97 -77 6 C-75.84188612 3.05270463 -75.84188612 3.05270463 -76 0 C-71.46102295 -0.02465392 -66.92208457 -0.04283789 -62.38305664 -0.05493164 C-60.83780234 -0.0599714 -59.29255284 -0.0668032 -57.74731445 -0.07543945 C-55.53074971 -0.08752076 -53.31424782 -0.09323173 -51.09765625 -0.09765625 C-50.4028566 -0.10281754 -49.70805695 -0.10797882 -48.99220276 -0.11329651 C-47.3277067 -0.11349277 -45.66334501 -0.06189129 -44 0 C-43 1 -43 1 -42.90234375 3.28515625 C-42.91394531 4.20167969 -42.92554688 5.11820313 -42.9375 6.0625 C-42.94652344 6.98160156 -42.95554687 7.90070312 -42.96484375 8.84765625 C-42.97644531 9.55792969 -42.98804688 10.26820312 -43 11 C-40.81348256 9.24385229 -40.81348256 9.24385229 -40.83984375 7.08984375 C-40.87207031 6.37957031 -40.90429688 5.66929688 -40.9375 4.9375 C-40.958125 3.638125 -40.97875 2.33875 -41 1 C-38.99865381 -1.00134619 -35.12377945 -0.41778038 -32.375 -0.5625 C-31.23333374 -0.6251001 -31.23333374 -0.6251001 -30.06860352 -0.68896484 C-19.98427573 -1.2014968 -10.01885351 -1.40615488 0 0 Z M-111 3 C-112.25949049 4.03406673 -112.25949049 4.03406673 -112.09765625 6.28515625 C-112.08605469 7.20167969 -112.07445312 8.11820313 -112.0625 9.0625 C-112.05347656 9.98160156 -112.04445312 10.90070312 -112.03515625 11.84765625 C-112.02355469 12.55792969 -112.01195312 13.26820312 -112 14 C-111.34 14 -110.68 14 -110 14 C-108.49337903 10.98675805 -108.82229627 8.31713623 -109 5 C-109.66 4.34 -110.32 3.68 -111 3 Z M-63 3 C-62.67 4.32 -62.34 5.64 -62 7 C-61.34 6.01 -60.68 5.02 -60 4 C-60.99 3.67 -61.98 3.34 -63 3 Z M-56 3 C-56 3.99 -56 4.98 -56 6 C-56.66 6 -57.32 6 -58 6 C-58 7.65 -58 9.3 -58 11 C-57.01 11 -56.02 11 -55 11 C-54.67 11.66 -54.34 12.32 -54 13 C-54 10.03 -54 7.06 -54 4 C-54.66 3.67 -55.32 3.34 -56 3 Z M-50 3 C-50 4.32 -50 5.64 -50 7 C-49.34 7 -48.68 7 -48 7 C-48.33 5.68 -48.66 4.36 -49 3 C-49.33 3 -49.66 3 -50 3 Z M-36 3 C-35.67 3.99 -35.34 4.98 -35 6 C-35 5.01 -35 4.02 -35 3 C-35.33 3 -35.66 3 -36 3 Z M-30 4 C-30 4.66 -30 5.32 -30 6 C-30.99 6.33 -31.98 6.66 -33 7 C-32.01 7.495 -32.01 7.495 -31 8 C-30.375 10.5625 -30.375 10.5625 -30 13 C-29.67 13 -29.34 13 -29 13 C-29 10.03 -29 7.06 -29 4 C-29.33 4 -29.66 4 -30 4 Z M-63 10 C-62.67 11.32 -62.34 12.64 -62 14 C-61.01 13.67 -60.02 13.34 -59 13 C-60.32 12.01 -61.64 11.02 -63 10 Z M-38 11 C-37.01 11.99 -36.02 12.98 -35 14 C-35.33 13.01 -35.66 12.02 -36 11 C-36.66 11 -37.32 11 -38 11 Z " fill="#ECECEC" transform="translate(264,20)"/>
<path d="M0 0 C4.06212212 -0.14547545 8.12357287 -0.23413226 12.1875 -0.3125 C13.91323242 -0.3753418 13.91323242 -0.3753418 15.67382812 -0.43945312 C24.15344654 -0.56234615 24.15344654 -0.56234615 28.26953125 2.171875 C30.18229544 5.29792753 30.62129558 6.9286867 30.5 10.5625 C30.4896875 11.49191406 30.479375 12.42132813 30.46875 13.37890625 C29.93467636 16.36526803 29.08931053 17.82363487 27 20 C26.34 20 25.68 20 25 20 C28.52965795 27.26828918 28.52965795 27.26828918 34 33 C36.66834966 33.33498301 36.66834966 33.33498301 39 33 C40.29361994 30.41276011 40.12948949 28.51886997 40.1328125 25.625 C40.13410156 24.55765625 40.13539063 23.4903125 40.13671875 22.390625 C40.13091797 20.71226563 40.13091797 20.71226563 40.125 19 C40.12886719 17.88109375 40.13273437 16.7621875 40.13671875 15.609375 C40.13542969 14.54203125 40.13414062 13.4746875 40.1328125 12.375 C40.13112061 10.90160156 40.13112061 10.90160156 40.12939453 9.3984375 C40.15895235 6.98592106 40.15895235 6.98592106 39 5 C38.01 4.67 37.02 4.34 36 4 C36 2.68 36 1.36 36 0 C40.49987562 -0.08767743 44.999529 -0.14062009 49.5 -0.1875 C51.40265625 -0.22520508 51.40265625 -0.22520508 53.34375 -0.26367188 C60.28170462 -0.31787465 65.76110439 -0.16074014 72 3 C77.49907952 8.64008155 77.35517827 13.98267302 77.26953125 21.54296875 C76.89230059 26.38136202 76.14997304 28.29878168 73 32 C64.74189249 38.44741591 56.52704237 38.39360243 46.4465332 38.77734375 C44.8584891 38.8423942 43.27084966 38.91822672 41.68383789 39.00488281 C39.38461676 39.12984826 37.08620025 39.22082936 34.78515625 39.3046875 C34.0798024 39.34923065 33.37444855 39.3937738 32.64772034 39.43966675 C28.72484075 39.54059111 27.19413708 39.15968969 24.12158203 36.63232422 C22.1897795 34.23546634 20.4447497 31.85809872 18.8125 29.25 C16.93505365 26.04952756 16.93505365 26.04952756 14 24 C14 26.97 14 29.94 14 33 C15.32 33.33 16.64 33.66 18 34 C18 35.32 18 36.64 18 38 C11.73 38 5.46 38 -1 38 C-1 36.68 -1 35.36 -1 34 C-0.360625 33.87625 0.27875 33.7525 0.9375 33.625 C1.618125 33.41875 2.29875 33.2125 3 33 C4.29361994 30.41276011 4.12948949 28.51886997 4.1328125 25.625 C4.13410156 24.55765625 4.13539063 23.4903125 4.13671875 22.390625 C4.13285156 21.27171875 4.12898437 20.1528125 4.125 19 C4.12886719 17.88109375 4.13273438 16.7621875 4.13671875 15.609375 C4.13478516 14.00835937 4.13478516 14.00835937 4.1328125 12.375 C4.13112061 10.90160156 4.13112061 10.90160156 4.12939453 9.3984375 C4.15895235 6.98592106 4.15895235 6.98592106 3 5 C2.01 4.67 1.02 4.34 0 4 C0 2.68 0 1.36 0 0 Z M14 4 C12.63467451 5.13701597 12.63467451 5.13701597 12.90234375 8.16015625 C12.91394531 9.44792969 12.92554688 10.73570313 12.9375 12.0625 C12.94652344 13.35285156 12.95554688 14.64320312 12.96484375 15.97265625 C12.97644531 16.97167969 12.98804688 17.97070312 13 19 C17.30495938 17.7455683 17.30495938 17.7455683 20.9375 15.25 C22.44922142 12.04870759 22.13065198 10.32129021 21 7 C18.59196729 5.14766715 17.07258075 4 14 4 Z M49 5 C48.91241997 6.99964982 48.89303424 9.0023611 48.90234375 11.00390625 C48.90556641 12.21884766 48.90878906 13.43378906 48.91210938 14.68554688 C48.92048828 15.96494141 48.92886719 17.24433594 48.9375 18.5625 C48.94201172 19.84576172 48.94652344 21.12902344 48.95117188 22.45117188 C48.96300455 25.63416022 48.97948932 28.81705762 49 32 C53.89959784 34.11738607 55.99402204 33.91881218 60.9140625 32.0390625 C64.59645177 30.20476373 66.23271808 27.90816183 67.74609375 24.14453125 C69.26778065 19.25812052 69.20012297 15.75226562 67 11 C64.31186741 7.54049023 61.65600842 5.39324094 57.3515625 4.37109375 C52.86801994 3.51213535 52.86801994 3.51213535 49 5 Z " fill="#F9F9F9" transform="translate(147,43)"/>
<path d="M0 0 C4.31399069 -1.06664605 7.69188628 -1.16638887 12 0 C17.51139559 4.05918659 21.70934963 9.72688674 26 15 C27.9889337 17.34302839 29.99487342 19.67078196 32 22 C32 16.72 32 11.44 32 6 C30.35 5.34 28.7 4.68 27 4 C27 2.68 27 1.36 27 0 C32.28 0 37.56 0 43 0 C43 1.32 43 2.64 43 4 C41.68 4.33 40.36 4.66 39 5 C38.67 16.22 38.34 27.44 38 39 C33 39 33 39 30.859375 37.19921875 C30.16328125 36.37035156 29.4671875 35.54148438 28.75 34.6875 C27.97914063 33.78257813 27.20828125 32.87765625 26.4140625 31.9453125 C25.61742187 30.97335938 24.82078125 30.00140625 24 29 C23.18273437 28.00742188 22.36546875 27.01484375 21.5234375 25.9921875 C19.98882515 24.11766101 18.46199744 22.23671724 16.9453125 20.34765625 C14.90815303 17.81484039 14.90815303 17.81484039 12 15 C12 20.94 12 26.88 12 33 C13.65 33.33 15.3 33.66 17 34 C17 35.32 17 36.64 17 38 C11.72 38 6.44 38 1 38 C1 36.68 1 35.36 1 34 C2.32 33.34 3.64 32.68 5 32 C5 23.09 5 14.18 5 5 C3.35 4.67 1.7 4.34 0 4 C0 2.68 0 1.36 0 0 Z " fill="#EBEBEB" transform="translate(263,43)"/>
<path d="M0 0 C1.28648438 -0.01675781 2.57296875 -0.03351562 3.8984375 -0.05078125 C8.70759643 0.41803613 11.9602755 1.74549518 15.48828125 5.06640625 C15.96652344 5.66324219 16.44476563 6.26007812 16.9375 6.875 C17.67419922 7.77412109 17.67419922 7.77412109 18.42578125 8.69140625 C22.25386803 13.86618155 21.09001923 21.16391242 20.625 27.3125 C18.91995936 33.02067953 14.80740469 36.29065115 9.921875 39.39453125 C4.15164727 41.70065968 -3.96430553 41.12653282 -9.9609375 39.6953125 C-15.22925495 37.41439345 -18.03628358 33.45165369 -20.375 28.3125 C-22.42701751 21.45065802 -21.66478862 14.63901658 -18.375 8.3125 C-13.03682488 2.25225288 -8.05619539 0.02412035 0 0 Z M-7.375 7.3125 C-10.88309652 11.48429046 -12.28255433 14.85820537 -12.375 20.3125 C-11.22049458 26.24849688 -9.27760623 30.55003475 -4.375 34.3125 C-1.51943806 35.95912182 -1.51943806 35.95912182 1.625 36.3125 C5.81566235 34.8334427 8.35116644 33.14211442 10.625 29.3125 C12.56707252 23.48628245 12.51639928 17.46855141 9.875 11.875 C7.62871595 7.96567758 5.50938587 6.00674743 1.25 4.4375 C-2.45602891 4.26102243 -4.29247299 5.27934389 -7.375 7.3125 Z " fill="#ECECEC" transform="translate(124.375,41.6875)"/>
<path d="M0 0 C2.97 0 5.94 0 9 0 C8.70703125 2.24609375 8.4140625 4.4921875 8.12109375 6.73828125 C7.85244822 9.16817116 7.85244822 9.16817116 9 12 C9.99 12 10.98 12 12 12 C12.33 9.03 12.66 6.06 13 3 C12.34 3 11.68 3 11 3 C11 2.01 11 1.02 11 0 C22.48520179 -1.0735426 22.48520179 -1.0735426 26.19921875 1.55859375 C27.65416173 3.30945733 28.8906408 5.01429769 30 7 C30 5.68 30 4.36 30 3 C29.34 3 28.68 3 28 3 C28 2.01 28 1.02 28 0 C35.59 0 43.18 0 51 0 C51.495 2.97 51.495 2.97 52 6 C53.15811388 3.05270463 53.15811388 3.05270463 53 0 C53.721875 0.350625 54.44375 0.70125 55.1875 1.0625 C58.32171509 2.36564406 58.32171509 2.36564406 63 1 C63 5.29 63 9.58 63 14 C62.34 14 61.68 14 61 14 C61 10.37 61 6.74 61 3 C60.34 3 59.68 3 59 3 C58.80664062 3.59167969 58.61328125 4.18335938 58.4140625 4.79296875 C57.05585281 8.9146645 55.67949415 12.9950524 54 17 C52.35 17 50.7 17 49 17 C47.35 12.71 45.7 8.42 44 4 C43.67 4 43.34 4 43 4 C42.9727585 5.41655793 42.95349533 6.83327045 42.9375 8.25 C42.92589844 9.03890625 42.91429687 9.8278125 42.90234375 10.640625 C42.93296498 13.30478142 42.93296498 13.30478142 44 17 C41.03 17 38.06 17 35 17 C35 16.01 35 15.02 35 14 C35.66 14 36.32 14 37 14 C37 10.37 37 6.74 37 3 C36.34 3.33 35.68 3.66 35 4 C34.53045739 7.04581269 34.53045739 7.04581269 34.375 10.5625 C34.30023438 11.76003906 34.22546875 12.95757812 34.1484375 14.19140625 C34.09945312 15.11824219 34.05046875 16.04507813 34 17 C29.44310722 16.39496718 29.44310722 16.39496718 27.41796875 14.58984375 C26.27864583 13.05989583 25.13932292 11.52994792 24 10 C24 11.32 24 12.64 24 14 C24.66 14 25.32 14 26 14 C26 14.99 26 15.98 26 17 C22.33333333 17 18.66666667 17 15 17 C14.24847656 17.05800781 13.49695313 17.11601563 12.72265625 17.17578125 C10.08240491 17.31147699 7.62409386 17.33073156 5 17 C2.43676987 14.66293724 2.07365926 13.0743472 1.83984375 9.6640625 C1.8151959 7.43167144 1.8689323 5.22815095 2 3 C1.34 3 0.68 3 0 3 C0 2.01 0 1.02 0 0 Z M18 3 C16.74050951 4.03406673 16.74050951 4.03406673 16.90234375 6.28515625 C16.91394531 7.20167969 16.92554688 8.11820313 16.9375 9.0625 C16.94652344 9.98160156 16.95554688 10.90070312 16.96484375 11.84765625 C16.97644531 12.55792969 16.98804688 13.26820312 17 14 C17.66 14 18.32 14 19 14 C20.50662097 10.98675805 20.17770373 8.31713623 20 5 C19.34 4.34 18.68 3.68 18 3 Z " fill="#F3F3F3" transform="translate(135,20)"/>
<path d="M0 0 C1.65 0 3.3 0 5 0 C7.47695863 5.75178373 9.8416871 11.51373493 11.97265625 17.40234375 C12.31748047 18.34440674 12.66230469 19.28646973 13.01757812 20.25708008 C13.70908124 22.15499763 14.38897112 24.0571905 15.05664062 25.96362305 C15.37955078 26.84445557 15.70246094 27.72528809 16.03515625 28.6328125 C16.45873413 29.82221436 16.45873413 29.82221436 16.89086914 31.03564453 C18.24176433 33.4281831 19.47742208 34.02298907 22 35 C22 36.32 22 37.64 22 39 C16.39 39 10.78 39 5 39 C5 37.68 5 36.36 5 35 C5.99 35 6.98 35 8 35 C7.01 32.36 6.02 29.72 5 27 C2.03 27 -0.94 27 -4 27 C-4.66 29.31 -5.32 31.62 -6 34 C-5.01 34.33 -4.02 34.66 -3 35 C-3 36.32 -3 37.64 -3 39 C-7.95 39 -12.9 39 -18 39 C-18 37.68 -18 36.36 -18 35 C-17.11683105 34.73437256 -17.11683105 34.73437256 -16.21582031 34.46337891 C-12.91853018 32.28577235 -11.96843118 29.12759649 -10.546875 25.5859375 C-10.24179016 24.85629791 -9.93670532 24.12665833 -9.62237549 23.37490845 C-8.65224101 21.0466293 -7.70098504 18.71115719 -6.75 16.375 C-6.09497991 14.79376079 -5.43874399 13.21302464 -4.78125 11.6328125 C-3.17334121 7.76090135 -1.58231849 3.88243533 0 0 Z M0 14 C-0.66 16.31 -1.32 18.62 -2 21 C-0.35 21 1.3 21 3 21 C2.65772428 18.02934491 2.65772428 18.02934491 2 15 C1.34 14.67 0.68 14.34 0 14 Z " fill="#F6F6F6" transform="translate(241,42)"/>
<path d="M0 0 C2.875 1.3125 2.875 1.3125 5 3 C5.33 3.99 5.66 4.98 6 6 C6.66 6 7.32 6 8 6 C8.268125 5.38125 8.53625 4.7625 8.8125 4.125 C10 2 10 2 13 0 C17.99273591 -0.46229036 20.99990685 -0.08578614 25 3 C27.35620437 6.53430656 27.48991613 7.83571287 27 12 C23.84210526 17.57894737 23.84210526 17.57894737 21 19 C13.95569935 19.57740169 13.95569935 19.57740169 10 17.1875 C8 15 8 15 8 12 C7.34 12 6.68 12 6 12 C5.9175 12.598125 5.835 13.19625 5.75 13.8125 C4.72684695 16.7966964 3.81266973 17.55760527 1 19 C-3.923789 19.62524305 -5.8549901 19.80394312 -9.9375 16.9375 C-12.40599406 13.42176604 -13 11.28616677 -13 7 C-10.19300808 0.68426818 -6.70664014 -0.57815863 0 0 Z " fill="#B00F13" transform="translate(33,53)"/>
<path d="M0 0 C15.74487472 -0.18451025 15.74487472 -0.18451025 23 1 C22.42415568 3.38564077 21.77772405 5.66682784 21 8 C22.65 8 24.3 8 26 8 C25.67 7.401875 25.34 6.80375 25 6.1875 C24 4 24 4 24 1 C30.93 1 37.86 1 45 1 C45.495 3.97 45.495 3.97 46 7 C45.34 7 44.68 7 44 7 C44 8.65 44 10.3 44 12 C44.99 12 45.98 12 47 12 C46.67 13.98 46.34 15.96 46 18 C38.74 18 31.48 18 24 18 C25 14 25 14 26 11 C24.35 11 22.7 11 21 11 C21.33 11.598125 21.66 12.19625 22 12.8125 C23 15 23 15 23 18 C20.03 18 17.06 18 14 18 C14 17.01 14 16.02 14 15 C14.66 15 15.32 15 16 15 C15.67 12.36 15.34 9.72 15 7 C13.68 7 12.36 7 11 7 C10.67 6.34 10.34 5.68 10 5 C10 7.97 10 10.94 10 14 C10.66 14.33 11.32 14.66 12 15 C12 15.99 12 16.98 12 18 C8.7 18 5.4 18 2 18 C2 17.01 2 16.02 2 15 C2.66 14.67 3.32 14.34 4 14 C4 11.03 4 8.06 4 5 C3.67 5.66 3.34 6.32 3 7 C1.68 7 0.36 7 -1 7 C-0.67 4.69 -0.34 2.38 0 0 Z M31 4 C29.76732652 5.00836062 29.76732652 5.00836062 29.90234375 7.06640625 C29.91394531 7.89011719 29.92554687 8.71382812 29.9375 9.5625 C29.94652344 10.38878906 29.95554687 11.21507812 29.96484375 12.06640625 C29.97644531 12.70449219 29.98804687 13.34257813 30 14 C31.32 14.33 32.64 14.66 34 15 C34 11.37 34 7.74 34 4 C33.01 4 32.02 4 31 4 Z M39 4 C39.33 5.32 39.66 6.64 40 8 C40.66 7.01 41.32 6.02 42 5 C41.01 4.67 40.02 4.34 39 4 Z M39 11 C39.33 12.32 39.66 13.64 40 15 C40.99 14.67 41.98 14.34 43 14 C41.68 13.01 40.36 12.02 39 11 Z " fill="#E4E4E4" transform="translate(84,19)"/>
<path d="M0 0 C2.61367414 0.44805842 4.84285343 0.9257919 7.25 2.0625 C12.61383553 3.89108029 18.20740922 3.1395615 23.75 2.4375 C27.13692325 2.01705436 29.65642333 2.24769525 33 3 C37.6337355 3.39642224 41.552052 3.44403358 45.8125 1.4375 C49 0 49 0 50.99609375 0.1875 C53.49975456 1.20262953 54.57079759 2.46349699 56.25 4.5625 C57.03117187 5.52349609 57.03117187 5.52349609 57.828125 6.50390625 C58.21484375 6.99761719 58.6015625 7.49132812 59 8 C57.87101719 10.30214322 56.70392034 12.4896702 55.375 14.6875 C52.77326726 20.95531069 53.78693937 26.31090133 55.5390625 32.72265625 C57.84779687 44.1293693 55.40972975 55.87498768 49.375 65.75 C44.19010779 72.85473895 35.77512534 81.6817488 27 84 C17.34555377 81.82162695 8.58118432 73.9710387 3 66 C-3.17425524 55.54492779 -5.8733914 44.78685507 -3.546875 32.6328125 C-3.36640625 31.99085937 -3.1859375 31.34890625 -3 30.6875 C-1.61427917 25.57765442 -0.57638428 20.63718978 -3.19140625 15.79296875 C-4.58433675 13.69270444 -4.58433675 13.69270444 -6.1015625 11.82421875 C-7 10 -7 10 -6.3125 7.97265625 C-4.40516766 5.10598115 -2.25091671 2.60632461 0 0 Z M1 2 C-0.65 3.98 -2.3 5.96 -4 8 C-3.71125 8.70125 -3.4225 9.4025 -3.125 10.125 C-2.75375 11.07375 -2.3825 12.0225 -2 13 C-1.62875 13.9075 -1.2575 14.815 -0.875 15.75 C0.43508543 20.61603158 0.98877092 25.63707107 -0.9921875 30.37109375 C-4.59836964 39.7779177 -1.78041482 51.07728178 2 60 C6.4064432 68.4478556 13.26019633 76.57083459 22.1328125 80.4375 C25.89899225 81.57208135 28.46750054 80.76467632 31.90234375 79.05078125 C42.18681879 73.10907878 48.88152737 64.43491003 52.421875 53.17578125 C54.75055132 44.41177645 54.5717432 36.6796333 52 28 C51.28157 21.53413001 52.5761069 16.95873719 55 11 C55.44844853 6.87387385 55.44844853 6.87387385 52.5 4.25 C51.675 3.5075 50.85 2.765 50 2 C49.18208984 2.32484375 49.18208984 2.32484375 48.34765625 2.65625 C41.39742244 5.22249018 35.53522606 6.09713912 28.375 3.875 C24.18284299 2.78814448 22.09430507 3.7293536 18 5 C11.61107125 5.72785264 6.85060774 4.55299247 1 2 Z " fill="#E3E0E0" transform="translate(14,7)"/>
<path d="M0 0 C5 2 5 2 7.1875 3.125 C12.63652198 4.82025128 18.46222706 4.67148067 23.875 2.875 C27.55997273 1.84320764 27.80968616 2.32599502 31 4 C38.4812034 5.29714414 45.06650768 2.55025005 52 0 C56.455 5.445 56.455 5.445 61 11 C59 16 59 16 57.3125 19.1875 C55.11857361 24.2147886 56.09351935 29.73666967 57.52734375 34.8984375 C60.26187496 47.05693164 57.02734617 59.31952717 50.8125 69.8125 C44.9508934 78.37467695 36.79764691 85.31238171 27 89 C19.75179115 88.47311645 10.9682941 80.85537833 6 76 C-4.95302175 62.75504639 -6.28638742 49.70884187 -5 33 C-4.68203819 31.66291766 -4.34961887 30.32915595 -4 29 C-3.47630896 23.76308964 -3.59870212 21.16280321 -6.625 16.8125 C-9.02770859 13.27708593 -9.02770859 13.27708593 -8.75 10.5 C-6.11940681 6.74200973 -3.11771286 3.35946065 0 0 Z M-1.82421875 4.75 C-2.74654297 5.86375 -2.74654297 5.86375 -3.6875 7 C-4.62142578 8.11375 -4.62142578 8.11375 -5.57421875 9.25 C-6.27998047 10.11625 -6.27998047 10.11625 -7 11 C-5.87101719 13.30214322 -4.70392034 15.4896702 -3.375 17.6875 C-0.77852178 23.94265207 -1.7848626 29.25841225 -3.5390625 35.65234375 C-5.90623469 47.70887328 -3.49246039 59.0591767 3.1875 69.25 C8.45346247 76.24508447 16.27860791 84.59514843 25 87 C35.15126641 84.71562713 44.05326485 76.23826666 50 68 C55.58997523 58.22171496 57.74234695 46.83189659 55.546875 35.703125 C55.36640625 35.05859375 55.1859375 34.4140625 55 33.75 C53.63099211 28.61622042 52.56569777 23.65698609 55.19140625 18.79296875 C56.625 16.6875 56.625 16.6875 58.1015625 14.82421875 C59.26648064 13.00088068 59.26648064 13.00088068 58.3125 10.97265625 C57.08386505 9.12604718 55.82409954 7.42790472 54.375 5.75 C53.59125 4.8425 52.8075 3.935 52 3 C49.38632586 3.44805842 47.15714657 3.9257919 44.75 5.0625 C38.52243298 7.18553421 31.66742128 5.95662017 25.26171875 5.12109375 C22.91036396 4.99520083 21.25555332 5.38039148 19 6 C12.78948265 6.59694437 8.5811447 5.67894946 3 3 C-0.06049937 2.65386277 -0.06049937 2.65386277 -1.82421875 4.75 Z " fill="#37322F" transform="translate(14,4)"/>
<path d="M0 0 C2.89282592 1.29678403 5.03618016 2.48542049 7 5 C7.328125 7.55859375 7.328125 7.55859375 7.25 10.4375 C7.23453125 11.38496094 7.2190625 12.33242188 7.203125 13.30859375 C7.02481686 15.67117655 6.66441184 17.73349833 6 20 C7.093125 19.896875 8.18625 19.79375 9.3125 19.6875 C13 20 13 20 15 22.25 C16 25 16 25 15 29 C11.04 29 7.08 29 3 29 C3 29.99 3 30.98 3 32 C1.68 32 0.36 32 -1 32 C-1 31.01 -1 30.02 -1 29 C-4.96 29 -8.92 29 -13 29 C-14 25 -14 25 -13 22.25 C-11 20 -11 20 -7.3125 19.6875 C-6.219375 19.790625 -5.12625 19.89375 -4 20 C-4.15726563 19.45214844 -4.31453125 18.90429688 -4.4765625 18.33984375 C-5.53563909 13.60561334 -6.50707309 7.46611961 -3.8828125 3.171875 C-2.5 1.8125 -2.5 1.8125 0 0 Z " fill="#74736E" transform="translate(39,23)"/>
<path d="M0 0 C15.83898504 -1.04597071 15.83898504 -1.04597071 20.56640625 1.2421875 C23.07884978 3.86965857 23.94999918 5.82961038 24.10546875 9.46875 C23.89584147 11.714249 23.54528665 13.81389625 23 16 C21.35 16.66 19.7 17.32 18 18 C18.515625 17.29875 19.03125 16.5975 19.5625 15.875 C21.30443767 12.39112465 20.94693195 10.7016431 20 7 C18.02 6.34 16.04 5.68 14 5 C13.67 9.62 13.34 14.24 13 19 C13.99 19.33 14.98 19.66 16 20 C14.68 20 13.36 20 12 20 C12.33 23.96 12.66 27.92 13 32 C14.65 32.66 16.3 33.32 18 34 C18 35.32 18 36.64 18 38 C11.73 38 5.46 38 -1 38 C-1 36.68 -1 35.36 -1 34 C-0.360625 33.87625 0.27875 33.7525 0.9375 33.625 C1.618125 33.41875 2.29875 33.2125 3 33 C4.29361994 30.41276011 4.12948949 28.51886997 4.1328125 25.625 C4.13410156 24.55765625 4.13539063 23.4903125 4.13671875 22.390625 C4.13285156 21.27171875 4.12898437 20.1528125 4.125 19 C4.12886719 17.88109375 4.13273438 16.7621875 4.13671875 15.609375 C4.13478516 14.00835937 4.13478516 14.00835937 4.1328125 12.375 C4.13112061 10.90160156 4.13112061 10.90160156 4.12939453 9.3984375 C4.15895235 6.98592106 4.15895235 6.98592106 3 5 C2.01 4.67 1.02 4.34 0 4 C0 2.68 0 1.36 0 0 Z " fill="#FAFAFA" transform="translate(147,43)"/>
<path d="M0 0 C5.94 0 11.88 0 18 0 C18 1.32 18 2.64 18 4 C17.01 4.33 16.02 4.66 15 5 C13.5667765 7.866447 13.83534656 10.38142483 13.7890625 13.58203125 C13.76098499 14.91993392 13.73232047 16.25782438 13.703125 17.59570312 C13.66194082 19.70222515 13.62504989 21.80852136 13.59863281 23.9152832 C13.57090687 25.95051068 13.52503124 27.98470583 13.4765625 30.01953125 C13.45674316 31.23745361 13.43692383 32.45537598 13.41650391 33.71020508 C12.81318475 38.47557764 10.71623979 41.74965078 7.125 44.875 C4 47 4 47 1.125 46.8125 C0.42375 46.544375 -0.2775 46.27625 -1 46 C-1 44.68 -1 43.36 -1 42 C0.29735507 40.95374591 1.63266972 39.95298777 3 39 C4.17942085 35.46173745 4.11289189 32.65851274 4.09765625 28.92578125 C4.09553383 27.90003242 4.09553383 27.90003242 4.09336853 26.8535614 C4.08777876 24.67316278 4.07522822 22.49286749 4.0625 20.3125 C4.05748367 18.83268378 4.052921 17.35286594 4.04882812 15.87304688 C4.03781271 12.24866443 4.02055512 8.6243423 4 5 C2.68 4.67 1.36 4.34 0 4 C0 2.68 0 1.36 0 0 Z " fill="#E1E1E1" transform="translate(84,43)"/>
<path d="M0 0 C4.25414623 -0.02465622 8.50825498 -0.04283899 12.76245117 -0.05493164 C14.21070073 -0.05997101 15.65894517 -0.06680253 17.10717773 -0.07543945 C19.18474588 -0.08752247 21.26224697 -0.09323211 23.33984375 -0.09765625 C24.59144287 -0.10289307 25.84304199 -0.10812988 27.13256836 -0.11352539 C30 0 30 0 31 1 C30.99092333 3.49154587 30.86715229 5.96876171 30.7421875 8.45703125 C31.0483112 11.47652413 32.00919478 12.76425277 34 15 C29.16743695 14.58578031 27.17320782 12.53586014 24 9 C24.33 9.763125 24.66 10.52625 25 11.3125 C26 14 26 14 26 17 C18.74 17 11.48 17 4 17 C4 16.01 4 15.02 4 14 C5.32 14 6.64 14 8 14 C8 9.71 8 5.42 8 1 C6.02 1.66 4.04 2.32 2 3 C2 2.34 2 1.68 2 1 C1.34 0.67 0.68 0.34 0 0 Z M11 3 C11.33 4.32 11.66 5.64 12 7 C12.66 6.01 13.32 5.02 14 4 C13.01 3.67 12.02 3.34 11 3 Z M18 3 C18 3.99 18 4.98 18 6 C17.34 6 16.68 6 16 6 C16 7.65 16 9.3 16 11 C16.99 11 17.98 11 19 11 C19.33 11.66 19.66 12.32 20 13 C20 10.03 20 7.06 20 4 C19.34 3.67 18.68 3.34 18 3 Z M24 3 C24 4.32 24 5.64 24 7 C24.66 7 25.32 7 26 7 C25.67 5.68 25.34 4.36 25 3 C24.67 3 24.34 3 24 3 Z M11 10 C11.33 11.32 11.66 12.64 12 14 C12.99 13.67 13.98 13.34 15 13 C13.68 12.01 12.36 11.02 11 10 Z " fill="#EAEAEA" transform="translate(190,20)"/>
<path d="M0 0 C0.99 0.99 1.98 1.98 3 3 C2.34 3.33 1.68 3.66 1 4 C1 3.34 1 2.68 1 2 C0.34 2.66 -0.32 3.32 -1 4 C-0.79375 4.61875 -0.5875 5.2375 -0.375 5.875 C-0.25125 6.57625 -0.1275 7.2775 0 8 C-2.20948421 10.9478156 -3.4688023 11.90251428 -7.12890625 12.57421875 C-8.82853516 12.63029297 -8.82853516 12.63029297 -10.5625 12.6875 C-16.8807153 12.72259131 -16.8807153 12.72259131 -22 16 C-22.70125 15.690625 -23.4025 15.38125 -24.125 15.0625 C-27.08936657 13.96697322 -29.87698108 13.43577008 -33 13 C-32.67 12.01 -32.34 11.02 -32 10 C-31.65179959 8.33637583 -31.31595508 6.67004829 -31 5 C-34.3 5 -37.6 5 -41 5 C-41 4.67 -41 4.34 -41 4 C-40.03578125 3.86722656 -39.0715625 3.73445312 -38.078125 3.59765625 C-36.18320312 3.33275391 -36.18320312 3.33275391 -34.25 3.0625 C-32.99703125 2.88847656 -31.7440625 2.71445313 -30.453125 2.53515625 C-27.16712727 2.09047199 -27.16712727 2.09047199 -24.68359375 1.375 C-23 1 -23 1 -20.8125 1.9375 C-13.6232646 4.65343337 -6.89429396 2.73815931 0 0 Z " fill="#098036" transform="translate(64,9)"/>
<path d="M0 0 C2.9375 1.8125 2.9375 1.8125 5 5 C5.73161663 9.71021751 6.10554696 14.1604927 3.59375 18.33984375 C3.0678125 18.88769531 2.541875 19.43554688 2 20 C1.34 20 0.68 20 0 20 C2.77712027 25.75900517 5.49062875 29.95140872 10.64453125 33.80859375 C11.09183594 34.20175781 11.53914063 34.59492187 12 35 C12 35.66 12 36.32 12 37 C7.82451727 37.41754827 5.60401289 37.37750805 2 35.125 C-1.42082559 31.960279 -3.81835447 28.03002905 -6.2890625 24.109375 C-7.99373213 21.57609272 -7.99373213 21.57609272 -12 21 C-12 24.63 -12 28.26 -12 32 C-12.33 32 -12.66 32 -13 32 C-13.08082094 30.04233719 -13.13910778 28.08373272 -13.1875 26.125 C-13.22230469 25.03445312 -13.25710937 23.94390625 -13.29296875 22.8203125 C-13.19628906 21.88960937 -13.09960938 20.95890625 -13 20 C-9.71536341 17.81024227 -6.79303725 17.00193437 -3 16 C-1.65154718 10.00165247 -1.65154718 10.00165247 -3.625 4.5 C-6.14823562 2.9063775 -8.04969469 2.3278117 -11 2 C-7.33755697 -0.34396354 -4.27605847 -0.52512999 0 0 Z " fill="#E6E6E6" transform="translate(172,43)"/>
<path d="M0 0 C7.91576132 7.48788233 7.91576132 7.48788233 8.109375 13.26171875 C7.99078125 14.39222656 7.8721875 15.52273437 7.75 16.6875 C7.64171875 17.82574219 7.5334375 18.96398437 7.421875 20.13671875 C7 23 7 23 6 25 C4.88488443 38.96636546 7.09187892 51.79803774 16 63 C16.59167969 63.81082031 17.18335937 64.62164062 17.79296875 65.45703125 C20.32523379 68.3747384 23.13335405 70.48341504 26.3125 72.625 C27.12750977 73.19734375 27.12750977 73.19734375 27.95898438 73.78125 C31.82985434 76.43190476 35.66749494 78.27578379 40 80 C40 80.33 40 80.66 40 81 C33.17459702 81.90146832 29.42433965 80.05343398 23.8125 76.1875 C13.37439698 68.06897543 6.14608194 58.94140996 3 46 C2.64823905 42.40343748 2.66760264 38.86003449 2.75 35.25 C2.75773438 33.87134766 2.75773438 33.87134766 2.765625 32.46484375 C2.8155496 28.15260626 3.10411154 24.22592126 4 20 C4.66499275 14.12589738 3.26267512 11.51022475 0.046875 6.8671875 C-1 5 -1 5 -0.8125 2 C-0.544375 1.34 -0.27625 0.68 0 0 Z " fill="#060606" transform="translate(1,15)"/>
<path d="M0 0 C3.51242632 2.3884499 4.64283335 3.95082297 6 7.9375 C6 11.67422615 4.89215342 13.82118225 3 17 C9.28453206 20.32797915 13.88658735 21.45164525 21 21 C20.505 22.485 20.505 22.485 20 24 C13.33501856 25.28999641 9.42807258 24.84771137 3.26171875 22.0078125 C-0.26358916 20.43694991 -3.05901392 19.99625308 -6.9375 19.75 C-10.12217994 19.34521825 -11.18814883 18.87456745 -14 17 C-16.35506582 13.46740127 -16.75075696 11.33727844 -16.46484375 7.16015625 C-16 5 -16 5 -14.1875 1.9375 C-9.5135764 -0.90351238 -5.33101063 -0.99256054 0 0 Z M-11 4 C-12.07762412 7.64734317 -12.10632061 9.64781297 -11 13.3125 C-9.17340994 16.35045011 -9.17340994 16.35045011 -5.4375 16.9375 C-2.13990053 17.26303331 -2.13990053 17.26303331 0 16 C1.29790752 11.57614619 1.54463815 8.06749078 -0.5625 3.9375 C-2.89775397 1.74470588 -2.89775397 1.74470588 -6.125 1.5625 C-9.12331681 1.72819646 -9.12331681 1.72819646 -11 4 Z " fill="#FEF5E1" transform="translate(332,64)"/>
<path d="M0 0 C0.99 0 1.98 0 3 0 C2.46487115 2.67564426 1.63739512 4.80075245 0.5 7.3125 C-2.1666738 13.86807309 -2.41331057 18.42832979 0.05078125 24.984375 C1.75770235 28.6089482 3.84261716 30.37438766 7.3125 32.25 C10.61694262 33.17217003 13.58621148 33.13387406 17 33 C16.67 33.99 16.34 34.98 16 36 C8.94880707 36.52883947 3.47796566 36.72361001 -2.37890625 32.4375 C-6.00151912 29.22515895 -8.82015185 26.10805618 -9.23828125 21.20703125 C-9.39184939 14.18330966 -9.28415596 9.67020641 -5 4 C-4.34 3.34 -3.68 2.68 -3 2 C-2.01 2 -1.02 2 0 2 C0 1.34 0 0.68 0 0 Z " fill="#EEEEEE" transform="translate(115,44)"/>
<path d="M0 0 C5.35913951 1.16145174 8.40376404 2.46594116 11.9140625 6.93359375 C15.30154377 12.2670749 14.58959666 18.88193353 13.9140625 24.93359375 C11.78104052 30.07570032 6.74348713 32.68541332 1.9140625 34.93359375 C-1.7734375 35.87109375 -1.7734375 35.87109375 -5.0859375 35.93359375 C-7.29296875 34.4375 -7.29296875 34.4375 -9.0859375 32.93359375 C-8.33828125 32.78664062 -7.590625 32.6396875 -6.8203125 32.48828125 C-0.52506802 31.09056163 -0.52506802 31.09056163 4.5390625 27.30859375 C6.87202983 21.5822194 7.71242397 16.53750026 5.7890625 10.55859375 C4.23666255 6.98594728 2.53262278 5.52222997 -1.0859375 3.93359375 C-1.8490625 3.54171875 -2.6121875 3.14984375 -3.3984375 2.74609375 C-3.9553125 2.47796875 -4.5121875 2.20984375 -5.0859375 1.93359375 C-2.0859375 -0.06640625 -2.0859375 -0.06640625 0 0 Z " fill="#F1F1F1" transform="translate(210.0859375,43.06640625)"/>
<path d="M0 0 C1.48693359 0.00386719 1.48693359 0.00386719 3.00390625 0.0078125 C3.99261719 0.00523438 4.98132813 0.00265625 6 0 C8.56640625 0.1328125 8.56640625 0.1328125 10.56640625 1.1328125 C10.56640625 5.4228125 10.56640625 9.7128125 10.56640625 14.1328125 C13.04140625 14.6278125 13.04140625 14.6278125 15.56640625 15.1328125 C15.56640625 15.7928125 15.56640625 16.4528125 15.56640625 17.1328125 C11.65012962 17.27804184 7.73454472 17.36686007 3.81640625 17.4453125 C2.70523438 17.48720703 1.5940625 17.52910156 0.44921875 17.57226562 C-7.76571143 17.69598445 -7.76571143 17.69598445 -11.19921875 14.80078125 C-12.43359375 12.1328125 -12.43359375 12.1328125 -12.43359375 9.1328125 C-9.43359375 10.1328125 -9.43359375 10.1328125 -7.93359375 12.1953125 C-7.43859375 12.8346875 -6.94359375 13.4740625 -6.43359375 14.1328125 C-5.44359375 14.1328125 -4.45359375 14.1328125 -3.43359375 14.1328125 C-3.61921875 13.4934375 -3.80484375 12.8540625 -3.99609375 12.1953125 C-4.14046875 11.5146875 -4.28484375 10.8340625 -4.43359375 10.1328125 C-4.10359375 9.8028125 -3.77359375 9.4728125 -3.43359375 9.1328125 C-3.43359375 7.8128125 -3.43359375 6.4928125 -3.43359375 5.1328125 C-3.43359375 0.18738714 -3.43359375 0.18738714 0 0 Z M1.56640625 3.1328125 C1.89640625 4.1228125 2.22640625 5.1128125 2.56640625 6.1328125 C2.56640625 5.1428125 2.56640625 4.1528125 2.56640625 3.1328125 C2.23640625 3.1328125 1.90640625 3.1328125 1.56640625 3.1328125 Z M7.56640625 4.1328125 C7.56640625 4.7928125 7.56640625 5.4528125 7.56640625 6.1328125 C6.57640625 6.4628125 5.58640625 6.7928125 4.56640625 7.1328125 C5.55640625 7.6278125 5.55640625 7.6278125 6.56640625 8.1328125 C7.19140625 10.6953125 7.19140625 10.6953125 7.56640625 13.1328125 C7.89640625 13.1328125 8.22640625 13.1328125 8.56640625 13.1328125 C8.56640625 10.1628125 8.56640625 7.1928125 8.56640625 4.1328125 C8.23640625 4.1328125 7.90640625 4.1328125 7.56640625 4.1328125 Z M-0.43359375 11.1328125 C0.55640625 12.1228125 1.54640625 13.1128125 2.56640625 14.1328125 C2.23640625 13.1428125 1.90640625 12.1528125 1.56640625 11.1328125 C0.90640625 11.1328125 0.24640625 11.1328125 -0.43359375 11.1328125 Z " fill="#040404" transform="translate(226.43359375,19.8671875)"/>
<path d="M0 0 C0.66 0.99 1.32 1.98 2 3 C0.68 4.65 -0.64 6.3 -2 8 C-0.99999372 10.69232459 -0.03302101 12.95300857 1.625 15.3125 C3.7147164 19.39694569 3.65436247 23.45816392 2.49926758 27.94506836 C-0.08379183 38.57666298 0.508711 53.50366831 6 63 C6.52464844 63.91652344 7.04929687 64.83304687 7.58984375 65.77734375 C12.07277934 72.68656161 17.31988873 76.77259023 24.14453125 81.125 C26.43475282 82.62883906 28.19333676 83.97146584 30 86 C29.01 86.495 29.01 86.495 28 87 C15.78529014 80.65969455 4.87440235 71.36812153 0.5546875 57.90234375 C0.37164063 57.27457031 0.18859375 56.64679687 0 56 C-0.391875 54.824375 -0.78375 53.64875 -1.1875 52.4375 C-3.32234456 43.37786551 -2.5284655 33.84962925 0 25 C0.52423359 21.33036486 0.73503284 19.08693241 -1.37890625 15.9609375 C-2.48713557 14.58786451 -3.59775295 13.21671498 -4.7109375 11.84765625 C-6 10 -6 10 -6.1875 7.3125 C-4.62394457 4.26768153 -2.53282222 2.27304558 0 0 Z " fill="#D6D5D5" transform="translate(8,7)"/>
<path d="M0 0 C2.89331086 1.29700142 5.03012433 2.49035614 7 5 C7.36328125 7.5234375 7.36328125 7.5234375 7.3125 10.375 C7.30863281 11.31085937 7.30476563 12.24671875 7.30078125 13.2109375 C6.98646823 16.12547646 6.21206166 18.34408799 5 21 C5.99 21.66 6.98 22.32 8 23 C3.38 23 -1.24 23 -6 23 C-4.68 22.34 -3.36 21.68 -2 21 C-2.66 20.67 -3.32 20.34 -4 20 C-5.6564168 15.25662463 -5.68553966 9.93005114 -5 5 C-3.55645417 2.6378341 -2.28109334 1.65379267 0 0 Z " fill="#9C9997" transform="translate(39,23)"/>
<path d="M0 0 C3.39351067 2.66632981 3.89326125 4.25282878 4.5 8.5 C3.89326125 12.74717122 3.39351067 14.33367019 0 17 C-4.57461461 17.86628915 -8.50842752 17.8168135 -12.625 15.5625 C-14.69251226 11.70940896 -14.73682337 8.27200781 -14 4 C-11.13012334 -1.34840651 -5.41025421 -1.02453319 0 0 Z M-7.625 4.125 C-9.30981169 6.02424653 -9.30981169 6.02424653 -8.9375 9.0625 C-8.30199095 12.10851061 -8.30199095 12.10851061 -5.9375 13.375 C-5.298125 13.58125 -4.65875 13.7875 -4 14 C-1.70172688 12.12061828 -1.70172688 12.12061828 -1.6875 9.0625 C-1.72780705 6.01543544 -1.72780705 6.01543544 -3.4375 4.125 C-5.53576839 2.61424676 -5.49281542 2.64887221 -7.625 4.125 Z " fill="#E2E2E2" transform="translate(291,20)"/>
<path d="M0 0 C2.875 1.5625 2.875 1.5625 5 4 C5.63210717 7.93311127 5.60020266 10.02467068 3.5 13.4375 C0.46962931 15.33148168 -1.55830934 15.64334247 -5.08984375 15.4453125 C-7 15 -7 15 -9.5625 12.9375 C-11.44610971 9.08838451 -11.207644 7.07579849 -10 3 C-7.07633177 -0.35680426 -4.30565927 -0.61509418 0 0 Z " fill="#195F2F" transform="translate(33,55)"/>
<path d="M0 0 C3 2.0625 3 2.0625 5 5 C5 8.51955419 4.63108355 10.84920059 2.9375 13.9375 C-0.26492585 15.69366901 -3.49690726 15.62026592 -7 15 C-9.5 13.4375 -9.5 13.4375 -11 11 C-11.56288002 7.05983987 -11.60396028 4.94217804 -9.4375 1.5625 C-6.01685857 -0.63021887 -3.99048721 -0.63007693 0 0 Z " fill="#0A8036" transform="translate(53,55)"/>
<path d="M0 0 C2.31 0 4.62 0 7 0 C7.33 1.98 7.66 3.96 8 6 C9.15811388 3.05270463 9.15811388 3.05270463 9 0 C9.721875 0.350625 10.44375 0.70125 11.1875 1.0625 C14.32171509 2.36564406 14.32171509 2.36564406 19 1 C19 5.29 19 9.58 19 14 C18.34 14 17.68 14 17 14 C17 10.37 17 6.74 17 3 C16.34 3 15.68 3 15 3 C14.80664062 3.59167969 14.61328125 4.18335938 14.4140625 4.79296875 C13.05585281 8.9146645 11.67949415 12.9950524 10 17 C8.35 17 6.7 17 5 17 C3.35 12.71 1.7 8.42 0 4 C-0.66 4 -1.32 4 -2 4 C-1.34 2.68 -0.68 1.36 0 0 Z " fill="#919191" transform="translate(179,20)"/>
<path d="M0 0 C2.4377963 -0.05397335 4.87439685 -0.09365616 7.3125 -0.125 C8.00279297 -0.14175781 8.69308594 -0.15851562 9.40429688 -0.17578125 C13.17135396 -0.21217794 14.78431704 -0.14378864 18 2 C18.29296875 5.0390625 18.29296875 5.0390625 18.1875 8.625 C18.16042969 9.81351563 18.13335937 11.00203125 18.10546875 12.2265625 C18.07066406 13.14179687 18.03585938 14.05703125 18 15 C17.34 15 16.68 15 16 15 C15.67 12.36 15.34 9.72 15 7 C13.68 7 12.36 7 11 7 C10.67 6.34 10.34 5.68 10 5 C10 7.97 10 10.94 10 14 C10.66 14.33 11.32 14.66 12 15 C12 15.99 12 16.98 12 18 C8.7 18 5.4 18 2 18 C2 17.01 2 16.02 2 15 C2.66 14.67 3.32 14.34 4 14 C4 11.03 4 8.06 4 5 C3.67 5.66 3.34 6.32 3 7 C1.68 7 0.36 7 -1 7 C-0.67 4.69 -0.34 2.38 0 0 Z " fill="#E8E8E8" transform="translate(84,19)"/>
<path d="M0 0 C0.66 0 1.32 0 2 0 C1.67 2.31 1.34 4.62 1 7 C1.66 7.33 2.32 7.66 3 8 C3.81640625 10.14453125 3.81640625 10.14453125 4.5625 12.8125 C4.81128906 13.68519531 5.06007812 14.55789062 5.31640625 15.45703125 C5.90134027 17.63298581 6.46434428 19.81146376 7 22 C6.16855469 21.95359375 5.33710938 21.9071875 4.48046875 21.859375 C3.39378906 21.82328125 2.30710938 21.7871875 1.1875 21.75 C0.10855469 21.70359375 -0.97039062 21.6571875 -2.08203125 21.609375 C-5.05513297 21.71042945 -5.05513297 21.71042945 -6.75 23.71875 C-8.01594715 26.02910354 -9.15394242 28.32648567 -10.1875 30.75 C-10.53167969 31.54921875 -10.87585938 32.3484375 -11.23046875 33.171875 C-11.48441406 33.77515625 -11.73835937 34.3784375 -12 35 C-13.32 34.67 -14.64 34.34 -16 34 C-15.56445801 33.64043213 -15.12891602 33.28086426 -14.68017578 32.91040039 C-12.4031162 30.32132872 -11.41092855 27.62717814 -10.1171875 24.43359375 C-9.85745148 23.79889664 -9.59771545 23.16419952 -9.33010864 22.51026917 C-8.50460158 20.48883202 -7.68957898 18.46336226 -6.875 16.4375 C-6.05094568 14.40907707 -5.22480961 12.38151118 -4.39846802 10.35401917 C-3.65147768 8.51788069 -2.90936081 6.67976181 -2.16748047 4.84155273 C-1.49550609 3.20602162 -0.7907606 1.58152119 0 0 Z M0 14 C-0.66 16.31 -1.32 18.62 -2 21 C-0.35 21 1.3 21 3 21 C2.65772428 18.02934491 2.65772428 18.02934491 2 15 C1.34 14.67 0.68 14.34 0 14 Z " fill="#C8C8C8" transform="translate(241,42)"/>
<path d="M0 0 C2.2109375 0.12890625 2.2109375 0.12890625 5 1 C7.3515625 3.65234375 7.3515625 3.65234375 9.625 6.9375 C12.77011296 11.51498036 12.77011296 11.51498036 17 15 C19.32387947 15.39387788 21.65793749 15.73486085 24 16 C24 15.34 24 14.68 24 14 C23.34 13.67 22.68 13.34 22 13 C22.99 13 23.98 13 25 13 C25 13.66 25 14.32 25 15 C28.66752428 14.918329 32.33348093 14.80555924 36 14.6875 C37.02996094 14.66494141 38.05992187 14.64238281 39.12109375 14.61914062 C46.75364213 14.35175836 53.0221028 13.71894962 58.875 8.375 C59.926875 7.199375 59.926875 7.199375 61 6 C61.66 5.67 62.32 5.34 63 5 C61.63600763 9.46397502 59.90097811 11.45588384 56 14 C50.57833066 16.32115556 45.87660126 17.497214 39.95703125 17.6875 C38.85979988 17.73221436 38.85979988 17.73221436 37.74040222 17.77783203 C36.20877685 17.83510014 34.67686586 17.88515639 33.14477539 17.92822266 C30.80602473 18.00019928 28.47169163 18.1143695 26.13476562 18.23046875 C24.63810592 18.28122028 23.14135934 18.32948453 21.64453125 18.375 C20.95172562 18.41326904 20.25891998 18.45153809 19.54512024 18.4909668 C15.66232637 18.55453444 14.16203463 18.1339613 11.12817383 15.62573242 C9.20479128 13.25267067 7.48603827 10.90512716 5.875 8.3125 C3.99803941 5.29414446 3.03288839 4.02192559 0 2 C0 1.34 0 0.68 0 0 Z " fill="#090909" transform="translate(160,64)"/>
<path d="M0 0 C0 0.66 0 1.32 0 2 C-0.763125 2.4125 -1.52625 2.825 -2.3125 3.25 C-5.87952432 5.57271351 -6.66510729 6.92506436 -8 11 C-8.60796948 16.82760991 -8.83124962 22.06041756 -6.5 27.5 C-1.39588032 32.60411968 2.60123497 35.29158562 10 35.5625 C16.9570758 35.27225537 21.34948911 32.76700726 27 29 C25.26324232 32.96489071 23.37410419 34.82788272 19.67578125 37.01171875 C12.87882922 39.52212585 4.07389123 39.34002423 -2.625 36.5 C-7.22617494 33.69318304 -10.08771947 29.0506196 -11.61328125 23.94921875 C-12.86109382 17.65973921 -11.94924819 11.6527257 -9 6 C-3.68852459 0 -3.68852459 0 0 0 Z " fill="#080808" transform="translate(115,44)"/>
<path d="M0 0 C4.29 0 8.58 0 13 0 C12.67 3.96 12.34 7.92 12 12 C10.68 11.67 9.36 11.34 8 11 C8.33 12.98 8.66 14.96 9 17 C6.03 17 3.06 17 0 17 C0 16.01 0 15.02 0 14 C0.66 14 1.32 14 2 14 C2 10.37 2 6.74 2 3 C1.34 3 0.68 3 0 3 C0 2.01 0 1.02 0 0 Z M7 3 C7.33 4.32 7.66 5.64 8 7 C8.33 5.68 8.66 4.36 9 3 C8.34 3 7.68 3 7 3 Z " fill="#C2C2C2" transform="translate(294,20)"/>
<path d="M0 0 C2.31 0 4.62 0 7 0 C6.42415568 2.38564077 5.77772405 4.66682784 5 7 C6.65 7 8.3 7 10 7 C9.67 6.401875 9.34 5.80375 9 5.1875 C8 3 8 3 8 0 C10.64 0 13.28 0 16 0 C15.67 0.66 15.34 1.32 15 2 C14.90391392 3.83128771 14.87017421 5.66619959 14.875 7.5 C14.87242188 8.4796875 14.86984375 9.459375 14.8671875 10.46875 C14.83059947 12.99431054 14.83059947 12.99431054 16 15 C14.02 15 12.04 15 10 15 C10.66 14.67 11.32 14.34 12 14 C12 12.02 12 10.04 12 8 C9.69 8 7.38 8 5 8 C5.66 10.97 6.32 13.94 7 17 C4.03 17 1.06 17 -2 17 C-2 16.01 -2 15.02 -2 14 C-0.68 14 0.64 14 2 14 C2 9.71 2 5.42 2 1 C1.34 0.67 0.68 0.34 0 0 Z " fill="#D4D4D4" transform="translate(100,20)"/>
<path d="M0 0 C2.97 0 5.94 0 9 0 C8.70703125 2.24609375 8.4140625 4.4921875 8.12109375 6.73828125 C7.85244822 9.16817116 7.85244822 9.16817116 9 12 C11.41619823 12.25030977 11.41619823 12.25030977 14 12 C14.66 11.01 15.32 10.02 16 9 C16.625 11.3125 16.625 11.3125 17 14 C15 17 15 17 12.72265625 17.46875 C5.60580835 17.55235467 5.60580835 17.55235467 2.875 15.0625 C1.70829923 10.97904731 1.75203056 7.2154804 2 3 C1.34 3 0.68 3 0 3 C0 2.01 0 1.02 0 0 Z " fill="#CECECE" transform="translate(135,20)"/>
<path d="M0 0 C0.66 0 1.32 0 2 0 C2 0.66 2 1.32 2 2 C3.65 2.33 5.3 2.66 7 3 C7.09913574 7.75050819 7.17159264 12.50040976 7.21972656 17.25170898 C7.23979892 18.86672458 7.2670633 20.48166789 7.30175781 22.09643555 C7.35047215 24.42254501 7.37301154 26.74769093 7.390625 29.07421875 C7.41127014 29.79212082 7.43191528 30.51002289 7.45318604 31.24967957 C7.45538313 36.1971276 6.32589963 38.4227057 3 42 C2.67 42.99 2.34 43.98 2 45 C2.83144531 44.36771484 2.83144531 44.36771484 3.6796875 43.72265625 C4.76636719 42.90087891 4.76636719 42.90087891 5.875 42.0625 C6.59429687 41.51722656 7.31359375 40.97195312 8.0546875 40.41015625 C10 39 10 39 12 38 C10.43542435 42.22435427 7.656574 44.49058647 4 47 C1.125 46.8125 1.125 46.8125 -1 46 C-1 44.68 -1 43.36 -1 42 C0.29735507 40.95374591 1.63266972 39.95298777 3 39 C4.17942085 35.46173745 4.11289189 32.65851274 4.09765625 28.92578125 C4.09553383 27.90003242 4.09553383 27.90003242 4.09336853 26.8535614 C4.08777876 24.67316278 4.07522822 22.49286749 4.0625 20.3125 C4.05748367 18.83268378 4.052921 17.35286594 4.04882812 15.87304688 C4.03781271 12.24866443 4.02055512 8.6243423 4 5 C2.68 4.67 1.36 4.34 0 4 C0 2.68 0 1.36 0 0 Z " fill="#020202" transform="translate(84,43)"/>
<path d="M0 0 C4.95 0 9.9 0 15 0 C15 3 15 3 13.625 4.5 C13.08875 4.995 12.5525 5.49 12 6 C10.0549 8.91765 9.54723683 10.62537285 9 14 C9.66 14 10.32 14 11 14 C11 14.99 11 15.98 11 17 C7.7 17 4.4 17 1 17 C1 16.01 1 15.02 1 14 C2.65 14 4.3 14 6 14 C4.47513321 7.34260296 4.47513321 7.34260296 2 1 C1.34 0.67 0.68 0.34 0 0 Z " fill="#EFEFEF" transform="translate(257,20)"/>
<path d="M0 0 C3.86286128 3.75673871 7.39623619 7.70001655 10.875 11.8125 C14.81544105 16.45216904 18.78559413 21.05088881 22.890625 25.546875 C24 27 24 27 24 29 C24.99 29 25.98 29 27 29 C27 29.66 27 30.32 27 31 C24.765625 31.26953125 24.765625 31.26953125 22 31 C19.859375 29.19921875 19.859375 29.19921875 17.75 26.6875 C16.97785156 25.78 16.20570313 24.8725 15.41015625 23.9375 C14.61480469 22.968125 13.81945312 21.99875 13 21 C12.19433594 20.030625 11.38867188 19.06125 10.55859375 18.0625 C8.35390226 15.38926616 6.1701684 12.70129948 4 10 C3.25878906 9.12601563 2.51757812 8.25203125 1.75390625 7.3515625 C-0.27280808 4.6342306 -0.37824179 3.30961569 0 0 Z " fill="#080808" transform="translate(274,51)"/>
<path d="M0 0 C3.02778563 2.51957575 4.74801587 5.24404762 6 9 C6.92121212 22.26899767 6.92121212 22.26899767 3 28 C2.34 28.99 1.68 29.98 1 31 C-2.625 31.6875 -2.625 31.6875 -6 32 C-5.01 31.34 -4.02 30.68 -3 30 C1.61239495 25.72045544 1.61239495 25.72045544 3.23828125 19.80078125 C3.41835954 13.76341958 2.90221911 8.82038831 -1 4 C-4.1915459 1.60806488 -4.1915459 1.60806488 -8 1 C-10.68179698 1.643415 -12.53820337 2.64842538 -15 4 C-15.99 4.495 -15.99 4.495 -17 5 C-15.98912198 2.06845375 -14.97304162 0.98027436 -12.4375 -0.875 C-7.79900269 -2.39305366 -4.45051687 -1.96707928 0 0 Z " fill="#090909" transform="translate(132,46)"/>
<path d="M0 0 C0.99 0.99 1.98 1.98 3 3 C2.01 3.495 2.01 3.495 1 4 C1 3.34 1 2.68 1 2 C0.34 2.66 -0.32 3.32 -1 4 C-0.690625 4.928125 -0.690625 4.928125 -0.375 5.875 C0 8 0 8 -1.3984375 10.0859375 C-5.19575264 12.87975795 -8.64440263 12.6708413 -13.25 12.75 C-14.09046875 12.77964844 -14.9309375 12.80929688 -15.796875 12.83984375 C-17.8640715 12.91031636 -19.93204033 12.95744939 -22 13 C-21.67 11.35 -21.34 9.7 -21 8 C-19.7625 8.4125 -18.525 8.825 -17.25 9.25 C-15.09318295 9.87296508 -15.09318295 9.87296508 -13 10 C-10.45354496 8.29039594 -10.45354496 8.29039594 -9 6 C-11.97 5.67 -14.94 5.34 -18 5 C-18 4.67 -18 4.34 -18 4 C-17.11957031 3.87882813 -16.23914062 3.75765625 -15.33203125 3.6328125 C-14.17058594 3.46523437 -13.00914063 3.29765625 -11.8125 3.125 C-10.08966797 2.88136719 -10.08966797 2.88136719 -8.33203125 2.6328125 C-5.31275375 2.05939755 -2.79424152 1.25240957 0 0 Z " fill="#177036" transform="translate(64,9)"/>
<path d="M0 0 C1.64574566 -0.02688151 3.29161413 -0.04634123 4.9375 -0.0625 C5.85402344 -0.07410156 6.77054688 -0.08570312 7.71484375 -0.09765625 C10 0 10 0 11 1 C10.99092333 3.49154587 10.86715229 5.96876171 10.7421875 8.45703125 C11.0483112 11.47652413 12.00919478 12.76425277 14 15 C9.16743695 14.58578031 7.17320782 12.53586014 4 9 C4.66 10.98 5.32 12.96 6 15 C4.02 15 2.04 15 0 15 C0.66 14.67 1.32 14.34 2 14 C2 9.71 2 5.42 2 1 C1.34 0.67 0.68 0.34 0 0 Z M4 3 C4 4.32 4 5.64 4 7 C4.66 7 5.32 7 6 7 C5.67 5.68 5.34 4.36 5 3 C4.67 3 4.34 3 4 3 Z " fill="#FDFDFD" transform="translate(210,20)"/>
<path d="M0 0 C2.97 0 5.94 0 9 0 C9.33 0.66 9.66 1.32 10 2 C11.32 2 12.64 2 14 2 C13.34 1.34 12.68 0.68 12 0 C15.3125 -0.25 15.3125 -0.25 19 0 C20.9375 1.8125 20.9375 1.8125 22 4 C22 4.99 22 5.98 22 7 C19 6 19 6 18 5 C16.00041636 4.95919217 13.99954746 4.95745644 12 5 C12 5.66 12 6.32 12 7 C7.38 7 2.76 7 -2 7 C-1 2 -1 2 0 0 Z " fill="#EDEBEC" transform="translate(30,43)"/>
<path d="M0 0 C2.61367414 0.44805842 4.84285343 0.9257919 7.25 2.0625 C12.61383553 3.89108029 18.20740922 3.1395615 23.75 2.4375 C27.06717516 2.01922222 29.7445763 2.05487699 33 3 C31.25 4.0625 31.25 4.0625 29 5 C28.401875 4.835 27.80375 4.67 27.1875 4.5 C24.81895989 3.77108423 24.81895989 3.77108423 21.8125 4.9375 C14.06773317 7.09587764 8.28990314 6.18104864 1 3 C-0.32 4.65 -1.64 6.3 -3 8 C-2.690625 8.763125 -2.38125 9.52625 -2.0625 10.3125 C-1.32106407 12.18789677 -0.63771783 14.08684652 0 16 C-0.99 16 -1.98 16 -3 16 C-5.1875 13 -5.1875 13 -7 10 C-5.33248852 6.05860922 -2.77289351 3.2107188 0 0 Z " fill="#DAD7D7" transform="translate(14,7)"/>
<path d="M0 0 C5.8821519 -0.31511528 10.81849251 -0.03307756 16 3 C19.59117046 6.86741434 20.73180899 10.54316097 21.10546875 15.6875 C20.85874157 21.09722193 18.97735603 25.35781442 15 29 C14.34 28.67 13.68 28.34 13 28 C13.639375 27.13375 14.27875 26.2675 14.9375 25.375 C17.79094271 20.70573011 18.28759537 17.82143737 17.4375 12.4375 C15.75367584 8.41096396 13.91899796 5.89603343 10 4 C6.66407778 3.32783657 3.39861903 3.07388302 0 3 C0 2.01 0 1.02 0 0 Z " fill="#040404" transform="translate(197,45)"/>
<path d="M0 0 C0.33 0 0.66 0 1 0 C1.02578125 1.01578125 1.0515625 2.0315625 1.078125 3.078125 C1.60315858 17.52183413 4.63185034 29.2561375 14.9140625 40 C19.47156082 44.2125084 24.47023996 47.22231961 30 50 C29.34 50.66 28.68 51.32 28 52 C15.59316085 44.3395495 5.50518127 36.67243803 0.64453125 22.359375 C-0.76530905 15.01111645 -0.27774074 7.44499482 0 0 Z " fill="#2A2622" transform="translate(9,40)"/>
<path d="M0 0 C1.13884037 2.25609136 2.24775468 4.52166528 3.33203125 6.8046875 C3.82058594 7.81789063 4.30914063 8.83109375 4.8125 9.875 C5.29332031 10.88304688 5.77414063 11.89109375 6.26953125 12.9296875 C9.70388871 19.02315242 13.86351764 22.95832135 19.625 26.6875 C26.52005882 31.22985294 26.52005882 31.22985294 29 34 C28.01 34.495 28.01 34.495 27 35 C15.13313813 28.84025246 5.16107912 20.19926549 0 7.625 C-0.96410791 4.13010882 -1.02703381 3.23800938 0 0 Z " fill="#D8D8D7" transform="translate(9,59)"/>
<path d="M0 0 C0 2.64 0 5.28 0 8 C0.99 8.33 1.98 8.66 3 9 C3 10.32 3 11.64 3 13 C-1.95 13 -6.9 13 -12 13 C-12 11.68 -12 10.36 -12 9 C-10.02 9 -8.04 9 -6 9 C-5.5978125 7.6078125 -5.5978125 7.6078125 -5.1875 6.1875 C-2.88235294 0 -2.88235294 0 0 0 Z " fill="#EFEFEF" transform="translate(235,68)"/>
<path d="M0 0 C2.86095641 1.2824977 5.11365918 2.45343989 7 5 C7 6.65 7 8.3 7 10 C3.04 10 -0.92 10 -5 10 C-4.50769231 3.47692308 -4.50769231 3.47692308 -1.9375 1.0625 C-0.9784375 0.5365625 -0.9784375 0.5365625 0 0 Z " fill="#D6060F" transform="translate(39,23)"/>
<path d="M0 0 C1.9375 0.875 1.9375 0.875 4 2 C4.99 2.33 5.98 2.66 7 3 C7 2.34 7 1.68 7 1 C8.8125 0.3125 8.8125 0.3125 11 0 C12.8125 1.1875 12.8125 1.1875 14 3 C13.6875 5.1875 13.6875 5.1875 13 7 C9.25 8.125 9.25 8.125 7 7 C7 6.34 7 5.68 7 5 C6.01 5 5.02 5 4 5 C4 5.66 4 6.32 4 7 C0.25 8.125 0.25 8.125 -2 7 C-2 6.34 -2 5.68 -2 5 C-2.66 5 -3.32 5 -4 5 C-4 4.34 -4 3.68 -4 3 C-3.34 3 -2.68 3 -2 3 C-2 2.34 -2 1.68 -2 1 C-1.34 0.67 -0.68 0.34 0 0 Z " fill="#F7B834" transform="translate(342,90)"/>
<path d="M0 0 C1.32 0.33 2.64 0.66 4 1 C4 5.29 4 9.58 4 14 C5.32 14.33 6.64 14.66 8 15 C8 15.66 8 16.32 8 17 C0.74 17 -6.52 17 -14 17 C-14 16.01 -14 15.02 -14 14 C-7.07 14.495 -7.07 14.495 0 15 C0 14.34 0 13.68 0 13 C0.66 13 1.32 13 2 13 C1.85769192 11.58297487 1.71099254 10.1663904 1.5625 8.75 C1.48128906 7.96109375 1.40007812 7.1721875 1.31640625 6.359375 C1.02365007 4.17635361 0.57935581 2.1226818 0 0 Z " fill="#020202" transform="translate(208,20)"/>
<path d="M0 0 C0.75925781 0.33644531 1.51851562 0.67289062 2.30078125 1.01953125 C6.30035732 2.47234398 10.23289598 2.45038517 14.453125 2.65625 C15.71382812 2.82640625 15.71382812 2.82640625 17 3 C17.33 3.66 17.66 4.32 18 5 C13.01238576 6.66253808 7.61332197 6.98917476 2.63671875 5.10546875 C1.26969715 4.39821626 -0.08073053 3.65727378 -1.40625 2.875 C-2.9891681 1.8395804 -2.9891681 1.8395804 -5 2 C-5.495 2.66 -5.99 3.32 -6.5 4 C-6.995 4.66 -7.49 5.32 -8 6 C-8.66 6 -9.32 6 -10 6 C-10 2 -10 2 -8.375 0.1875 C-5.14770045 -1.42614978 -3.44656921 -0.91439591 0 0 Z " fill="#EDEDED" transform="translate(19,3)"/>
<path d="M0 0 C0.66 0 1.32 0 2 0 C2 0.66 2 1.32 2 2 C3.65 2.33 5.3 2.66 7 3 C7 12.57 7 22.14 7 32 C5.68 32.66 4.36 33.32 3 34 C3.33 33.01 3.66 32.02 4 31 C4.09387113 29.17766025 4.13070591 27.3520984 4.1328125 25.52734375 C4.13410156 24.46322266 4.13539063 23.39910156 4.13671875 22.30273438 C4.13285156 21.19220703 4.12898437 20.08167969 4.125 18.9375 C4.12886719 17.82310547 4.13273438 16.70871094 4.13671875 15.56054688 C4.13478516 13.96629883 4.13478516 13.96629883 4.1328125 12.33984375 C4.13112061 10.87599243 4.13112061 10.87599243 4.12939453 9.38256836 C4.15763793 6.98356611 4.15763793 6.98356611 3 5 C2.01 4.67 1.02 4.34 0 4 C0 2.68 0 1.36 0 0 Z " fill="#040404" transform="translate(183,43)"/>
<path d="M0 0 C0.66 0 1.32 0 2 0 C2 0.66 2 1.32 2 2 C2.804375 2.144375 3.60875 2.28875 4.4375 2.4375 C7 3 7 3 8 4 C8.08767112 6.07262076 8.10695873 8.14820294 8.09765625 10.22265625 C8.09443359 11.48271484 8.09121094 12.74277344 8.08789062 14.04101562 C8.07953403 15.38151109 8.07106907 16.72200588 8.0625 18.0625 C8.0574866 19.40689942 8.05292342 20.7513006 8.04882812 22.09570312 C8.03699488 25.39717941 8.02050971 28.69856803 8 32 C6.68 32.66 5.36 33.32 4 34 C4.33 33.34 4.66 32.68 5 32 C5.08527628 29.96767366 5.10716135 27.93252994 5.09765625 25.8984375 C5.09443359 24.68671875 5.09121094 23.475 5.08789062 22.2265625 C5.07951172 20.95554687 5.07113281 19.68453125 5.0625 18.375 C5.05573242 16.456875 5.05573242 16.456875 5.04882812 14.5 C5.03701203 11.33328708 5.02053815 8.16666644 5 5 C3.35 4.67 1.7 4.34 0 4 C0 2.68 0 1.36 0 0 Z " fill="#000000" transform="translate(263,43)"/>
<path d="M0 0 C0.66 0 1.32 0 2 0 C2 0.66 2 1.32 2 2 C2.9590625 2.2165625 2.9590625 2.2165625 3.9375 2.4375 C6 3 6 3 7 4 C7.08767112 6.07262076 7.10695873 8.14820294 7.09765625 10.22265625 C7.09443359 11.48271484 7.09121094 12.74277344 7.08789062 14.04101562 C7.07953403 15.38151109 7.07106907 16.72200588 7.0625 18.0625 C7.0574866 19.40689942 7.05292342 20.7513006 7.04882812 22.09570312 C7.03699488 25.39717941 7.02050971 28.69856803 7 32 C5.68 32.66 4.36 33.32 3 34 C3.33 33.01 3.66 32.02 4 31 C4.09387113 29.17766025 4.13070591 27.3520984 4.1328125 25.52734375 C4.13410156 24.46322266 4.13539063 23.39910156 4.13671875 22.30273438 C4.13285156 21.19220703 4.12898437 20.08167969 4.125 18.9375 C4.12886719 17.82310547 4.13273438 16.70871094 4.13671875 15.56054688 C4.13478516 13.96629883 4.13478516 13.96629883 4.1328125 12.33984375 C4.13112061 10.87599243 4.13112061 10.87599243 4.12939453 9.38256836 C4.15763793 6.98356611 4.15763793 6.98356611 3 5 C2.01 4.67 1.02 4.34 0 4 C0 2.68 0 1.36 0 0 Z " fill="#010101" transform="translate(147,43)"/>
<path d="M0 0 C0.66 0 1.32 0 2 0 C1.77183594 0.53367187 1.54367188 1.06734375 1.30859375 1.6171875 C-1.2444177 8.23440999 -1.44651039 14.00584367 0.53515625 20.84765625 C1.2051932 23.95009626 1.17095635 26.9552374 1.1875 30.125 C1.20167969 31.36507812 1.21585937 32.60515625 1.23046875 33.8828125 C1 37 1 37 -1 39 C-1.05534912 38.37432129 -1.11069824 37.74864258 -1.16772461 37.10400391 C-1.42013899 34.27727803 -1.67874193 31.45115193 -1.9375 28.625 C-2.02451172 27.64015625 -2.11152344 26.6553125 -2.20117188 25.640625 C-2.28818359 24.69960938 -2.37519531 23.75859375 -2.46484375 22.7890625 C-2.543396 21.91975098 -2.62194824 21.05043945 -2.70288086 20.15478516 C-2.88877834 17.95507084 -2.88877834 17.95507084 -4 16 C-4.81523315 9.43804138 -3.69351306 5.42484731 0 0 Z " fill="#3F3A36" transform="translate(71,18)"/>
<path d="M0 0 C0 3 0 3 -1.375 5.4375 C-6.60684331 10.54477561 -13.02107283 12.22982295 -20.2265625 12.390625 C-22.35972948 12.36445117 -24.49273623 12.31736192 -26.625 12.25 C-27.72457031 12.23195313 -28.82414063 12.21390625 -29.95703125 12.1953125 C-32.63896703 12.14867014 -35.31899343 12.08324119 -38 12 C-37.67 11.34 -37.34 10.68 -37 10 C-36.34515625 9.98541748 -35.6903125 9.97083496 -35.015625 9.95581055 C-32.00986327 9.88071957 -29.00513903 9.78426329 -26 9.6875 C-24.97003906 9.66494141 -23.94007813 9.64238281 -22.87890625 9.61914062 C-15.20411153 9.35027839 -8.9942389 8.67570284 -3.0625 3.375 C-2.381875 2.59125 -1.70125 1.8075 -1 1 C-0.67 0.67 -0.34 0.34 0 0 Z " fill="#000000" transform="translate(222,69)"/>
<path d="M0 0 C2.97 0 5.94 0 9 0 C9 1.32 9 2.64 9 4 C8.34 4 7.68 4 7 4 C7 3.34 7 2.68 7 2 C6.01 2 5.02 2 4 2 C4.825 2.7425 5.65 3.485 6.5 4.25 C9 7 9 7 9 11 C3.375 13.125 3.375 13.125 0 12 C0 10.68 0 9.36 0 8 C0.66 8 1.32 8 2 8 C2 8.66 2 9.32 2 10 C2.99 9.67 3.98 9.34 5 9 C4.175 8.2575 3.35 7.515 2.5 6.75 C0 4 0 4 0 0 Z " fill="#FDF3DC" transform="translate(339,71)"/>
<path d="M0 0 C0.99 0 1.98 0 3 0 C3 5.28 3 10.56 3 16 C-1 14 -1 14 -3 11 C-3.046875 8.80859375 -3.046875 8.80859375 -2.75 6.4375 C-2.66234375 5.65246094 -2.5746875 4.86742188 -2.484375 4.05859375 C-2 2 -2 2 0 0 Z " fill="#010101" transform="translate(352,67)"/>
<path d="M0 0 C0.66 0 1.32 0 2 0 C-0.13317608 8.06931777 -3.26375012 15.52648414 -6.6875 23.125 C-7.19861328 24.27226563 -7.70972656 25.41953125 -8.23632812 26.6015625 C-9.48552232 29.40349341 -10.74016069 32.20284346 -12 35 C-13.32 34.67 -14.64 34.34 -16 34 C-15.56445801 33.64043213 -15.12891602 33.28086426 -14.68017578 32.91040039 C-12.4031162 30.32132872 -11.41092855 27.62717814 -10.1171875 24.43359375 C-9.85745148 23.79889664 -9.59771545 23.16419952 -9.33010864 22.51026917 C-8.50460158 20.48883202 -7.68957898 18.46336226 -6.875 16.4375 C-6.05094568 14.40907707 -5.22480961 12.38151118 -4.39846802 10.35401917 C-3.65147768 8.51788069 -2.90936081 6.67976181 -2.16748047 4.84155273 C-1.49550609 3.20602162 -0.7907606 1.58152119 0 0 Z " fill="#050505" transform="translate(241,42)"/>
<path d="M0 0 C2.31 0 4.62 0 7 0 C6.67 0.66 6.34 1.32 6 2 C5.90342128 3.7895469 5.87019532 5.58285534 5.875 7.375 C5.87242187 8.33148438 5.86984375 9.28796875 5.8671875 10.2734375 C5.92308808 13.24498873 5.92308808 13.24498873 7 17 C4.03 17 1.06 17 -2 17 C-2 16.01 -2 15.02 -2 14 C-0.68 14 0.64 14 2 14 C2 9.71 2 5.42 2 1 C1.34 0.67 0.68 0.34 0 0 Z " fill="#E3E3E3" transform="translate(172,20)"/>
<path d="M0 0 C2.31 0 4.62 0 7 0 C7 1.98 7 3.96 7 6 C12.94 6.33 18.88 6.66 25 7 C25 7.66 25 8.32 25 9 C17.74 9 10.48 9 3 9 C4 5 4 5 5 2 C3.35 2 1.7 2 0 2 C0 1.34 0 0.68 0 0 Z " fill="#010101" transform="translate(105,28)"/>
<path d="M0 0 C3.29071898 3.11284228 6.04117964 5.89580496 8 10 C8.07421875 13.33203125 8.07421875 13.33203125 7.6875 16.8125 C7.56761719 17.97394531 7.44773437 19.13539062 7.32421875 20.33203125 C7.21722656 21.21246094 7.11023437 22.09289062 7 23 C5.53041498 20.26730058 4.82665545 18.23233127 4.125 15.125 C3.40350707 11.96333586 2.73792932 10.61812558 0.8125 7.8125 C-1 5 -1 5 -0.75 2.125 C-0.5025 1.42375 -0.255 0.7225 0 0 Z " fill="#131313" transform="translate(1,15)"/>
<path d="M0 0 C1.32 0 2.64 0 4 0 C3.48118887 4.1724106 2.28848726 6.25416821 -0.5625 9.3125 C-1.20316406 10.00988281 -1.84382813 10.70726563 -2.50390625 11.42578125 C-3.24447266 12.20501953 -3.24447266 12.20501953 -4 13 C-6 10 -6 10 -6 6 C-7.65 6 -9.3 6 -11 6 C-11 5.67 -11 5.34 -11 5 C-10.37351563 4.89042969 -9.74703125 4.78085938 -9.1015625 4.66796875 C-7.87566406 4.43013672 -7.87566406 4.43013672 -6.625 4.1875 C-5.81289063 4.03667969 -5.00078125 3.88585937 -4.1640625 3.73046875 C-1.64179359 3.12455058 -1.64179359 3.12455058 0 0 Z " fill="#0D7834" transform="translate(58,67)"/>
<path d="M0 0 C0 0.66 0 1.32 0 2 C-0.99 2 -1.98 2 -3 2 C-3.08131463 3.43655854 -3.13933559 4.8744483 -3.1875 6.3125 C-3.22230469 7.11300781 -3.25710938 7.91351563 -3.29296875 8.73828125 C-3.17375051 11.0500229 -3.17375051 11.0500229 -1.73828125 12.7734375 C0.35404149 14.24981804 1.46128977 14.37500612 4 14.3125 C4.680625 14.30863281 5.36125 14.30476563 6.0625 14.30078125 C8.32191109 14.08908293 8.32191109 14.08908293 11 12 C9.125 15.875 9.125 15.875 8 17 C3.49494731 17.50056141 -0.59369405 17.77011992 -4.625 15.5625 C-6.67617786 11.73985035 -6.79375398 8.24113646 -6 4 C-3.07317073 0 -3.07317073 0 0 0 Z " fill="#080808" transform="translate(283,20)"/>
<path d="M0 0 C0.79921875 0.20367187 1.5984375 0.40734375 2.421875 0.6171875 C3.02515625 0.78476563 3.6284375 0.95234375 4.25 1.125 C3.26 1.785 2.27 2.445 1.25 3.125 C3.56 3.455 5.87 3.785 8.25 4.125 C8.58 5.115 8.91 6.105 9.25 7.125 C3.625 7.375 3.625 7.375 0.25 5.125 C-0.08 5.785 -0.41 6.445 -0.75 7.125 C-3.75 7.125 -3.75 7.125 -5.13671875 5.8125 C-6.34114583 4.25 -7.54557292 2.6875 -8.75 1.125 C-5.45750312 -0.91393155 -3.7130065 -0.98285466 0 0 Z " fill="#127134" transform="translate(27.75,70.875)"/>
<path d="M0 0 C2.64 0 5.28 0 8 0 C7.67 0.66 7.34 1.32 7 2 C6.90391392 3.83128771 6.87017421 5.66619959 6.875 7.5 C6.87242188 8.4796875 6.86984375 9.459375 6.8671875 10.46875 C6.83059947 12.99431054 6.83059947 12.99431054 8 15 C6.02 15 4.04 15 2 15 C2.66 14.67 3.32 14.34 4 14 C4 12.02 4 10.04 4 8 C2.02 8 0.04 8 -2 8 C-0.68 7.67 0.64 7.34 2 7 C1.67 6.401875 1.34 5.80375 1 5.1875 C0 3 0 3 0 0 Z " fill="#FCFCFC" transform="translate(108,20)"/>
<path d="M0 0 C0.66 0 1.32 0 2 0 C2 0.66 2 1.32 2 2 C2.804375 2.144375 3.60875 2.28875 4.4375 2.4375 C7 3 7 3 8 4 C8.08700342 5.63472882 8.10701063 7.27314055 8.09765625 8.91015625 C8.09443359 9.89951172 8.09121094 10.88886719 8.08789062 11.90820312 C8.07951172 12.94912109 8.07113281 13.99003906 8.0625 15.0625 C8.05798828 16.10728516 8.05347656 17.15207031 8.04882812 18.22851562 C8.03699913 20.8190666 8.02051689 23.40950559 8 26 C5.64641749 23.64641749 5.72128096 23.07031606 5.5859375 19.8671875 C5.54726563 19.06152344 5.50859375 18.25585938 5.46875 17.42578125 C5.4378125 16.58402344 5.406875 15.74226563 5.375 14.875 C5.33632813 14.02550781 5.29765625 13.17601562 5.2578125 12.30078125 C5.16343506 10.20088316 5.08062414 8.10047109 5 6 C2.525 5.01 2.525 5.01 0 4 C0 2.68 0 1.36 0 0 Z " fill="#000000" transform="translate(290,43)"/>
<path d="M0 0 C1.32 0.33 2.64 0.66 4 1 C4.13277344 1.85464844 4.26554688 2.70929687 4.40234375 3.58984375 C4.57894531 4.69457031 4.75554687 5.79929687 4.9375 6.9375 C5.19853516 8.59072266 5.19853516 8.59072266 5.46484375 10.27734375 C5.71845136 12.90426929 5.71845136 12.90426929 7 14 C8.51928038 14.07179964 10.04167482 14.08392007 11.5625 14.0625 C12.38878906 14.05347656 13.21507812 14.04445313 14.06640625 14.03515625 C14.70449219 14.02355469 15.34257812 14.01195312 16 14 C15.67 14.99 15.34 15.98 15 17 C11.62086093 17.28529317 8.3721934 17.4127 5 17 C2.43676987 14.66293724 2.07365926 13.0743472 1.83984375 9.6640625 C1.8151959 7.43167144 1.8689323 5.22815095 2 3 C1.34 3 0.68 3 0 3 C0 2.01 0 1.02 0 0 Z " fill="#010101" transform="translate(135,20)"/>
<path d="M0 0 C0.33 0 0.66 0 1 0 C1 8.58 1 17.16 1 26 C-1 25 -1 25 -1.61328125 23.3984375 C-2.14126508 20.12387114 -2.17095193 16.9412328 -2.1875 13.625 C-2.20167969 12.33851562 -2.21585937 11.05203125 -2.23046875 9.7265625 C-2.00714141 6.11547289 -1.31293032 3.35238333 0 0 Z " fill="#C6C5C4" transform="translate(8,34)"/>
<path d="M0 0 C3.96 0 7.92 0 12 0 C12 1.98 12 3.96 12 6 C10.14375 5.7215625 10.14375 5.7215625 8.25 5.4375 C5.23720423 5.05288777 2.89989173 4.9125406 0 6 C0 4.02 0 2.04 0 0 Z " fill="#928F8C" transform="translate(34,33)"/>
<path d="M0 0 C4.63768531 3.6438956 6.07369925 8.63094897 8 14 C8.99 13.34 9.98 12.68 11 12 C10.67 13.65 10.34 15.3 10 17 C8.35 17 6.7 17 5 17 C3.35 12.71 1.7 8.42 0 4 C-0.66 4 -1.32 4 -2 4 C-1.34 2.68 -0.68 1.36 0 0 Z " fill="#0B0B0B" transform="translate(179,20)"/>
<path d="M0 0 C3 1 3 1 4.5 3.0625 C5.2425 4.0215625 5.2425 4.0215625 6 5 C6.99 5 7.98 5 9 5 C8.67 3.68 8.34 2.36 8 1 C8.66 1 9.32 1 10 1 C10.33 2.65 10.66 4.3 11 6 C13.31 6 15.62 6 18 6 C18 6.66 18 7.32 18 8 C15.75165504 8.13526139 13.50097486 8.23210804 11.25 8.3125 C9.99703125 8.37050781 8.7440625 8.42851563 7.453125 8.48828125 C4 8 4 8 1.546875 5.66796875 C0 3 0 3 0 0 Z " fill="#000000" transform="translate(214,29)"/>
<path d="M0 0 C0.66 0 1.32 0 2 0 C2.625 1.8125 2.625 1.8125 3 4 C1 7 1 7 -0.87939453 7.43237305 C-1.62302246 7.45855713 -2.36665039 7.48474121 -3.1328125 7.51171875 C-3.93847656 7.54716797 -4.74414062 7.58261719 -5.57421875 7.61914062 C-6.83685547 7.65297852 -6.83685547 7.65297852 -8.125 7.6875 C-9.39923828 7.73874023 -9.39923828 7.73874023 -10.69921875 7.79101562 C-12.79901105 7.87359173 -14.89948564 7.93846978 -17 8 C-16.67 6.35 -16.34 4.7 -16 3 C-14.14375 3.556875 -14.14375 3.556875 -12.25 4.125 C-8.86737382 4.98984427 -8.86737382 4.98984427 -5.5 4.125 C-5.005 3.75375 -4.51 3.3825 -4 3 C-3.67 3.33 -3.34 3.66 -3 4 C-0.94603274 3.59070014 -0.94603274 3.59070014 1 3 C0.67 2.01 0.34 1.02 0 0 Z " fill="#15582B" transform="translate(59,14)"/>
<path d="M0 0 C0.33 0.66 0.66 1.32 1 2 C0.0625 4.625 0.0625 4.625 -1 7 C-3.97 7 -6.94 7 -10 7 C-9.6875 4.625 -9.6875 4.625 -9 2 C-5.5647952 -0.29013653 -4.014669 -0.17842973 0 0 Z " fill="#058737" transform="translate(33,55)"/>
<path d="M0 0 C0.33 0.99 0.66 1.98 1 3 C-2 4 -2 4 -5.375 3.75 C-9.97855623 4.06748664 -11.04205169 5.61948765 -14 9 C-14.66 9 -15.32 9 -16 9 C-16.37125 8.38125 -16.7425 7.7625 -17.125 7.125 C-19.95269814 3.92027545 -22.85768218 3.81488219 -27 3 C-27 2.67 -27 2.34 -27 2 C-23.7 2 -20.4 2 -17 2 C-17 2.99 -17 3.98 -17 5 C-15.68 5 -14.36 5 -13 5 C-13 4.01 -13 3.02 -13 2 C-11.71802734 1.90912109 -11.71802734 1.90912109 -10.41015625 1.81640625 C-8.75306641 1.69072266 -8.75306641 1.69072266 -7.0625 1.5625 C-5.96035156 1.48128906 -4.85820313 1.40007813 -3.72265625 1.31640625 C-1.08890097 1.29581916 -1.08890097 1.29581916 0 0 Z " fill="#1D6233" transform="translate(55,50)"/>
<path d="M0 0 C2.8646211 1.44509904 5.54759163 2.91867974 8 5 C8.5 8.3125 8.5 8.3125 8 11 C5.04335481 12.4783226 2.25770263 12.06032783 -1 12 C-1.33 10.35 -1.66 8.7 -2 7 C-1.34 7 -0.68 7 0 7 C0.99 8.485 0.99 8.485 2 10 C2.99 10.33 3.98 10.66 5 11 C4.65120368 7.74456771 3.97866739 6.98126893 1.4375 4.75 C0.633125 4.1725 -0.17125 3.595 -1 3 C-0.67 2.01 -0.34 1.02 0 0 Z " fill="#F2F2F2" transform="translate(226,23)"/>
<path d="M0 0 C3.91436658 -0.4551589 5.60138447 -0.26291663 8.9375 1.9375 C11.54228169 5.80520615 11.17034836 7.76239679 10.39453125 12.20703125 C10.26433594 12.79871094 10.13414062 13.39039063 10 14 C8.35 14.66 6.7 15.32 5 16 C5.515625 15.29875 6.03125 14.5975 6.5625 13.875 C8.30443767 10.39112465 7.94693195 8.7016431 7 5 C5.5459375 4.5978125 5.5459375 4.5978125 4.0625 4.1875 C3.051875 3.795625 2.04125 3.40375 1 3 C0.67 2.01 0.34 1.02 0 0 Z " fill="#060606" transform="translate(160,45)"/>
<path d="M0 0 C1.32 0.33 2.64 0.66 4 1 C4.33 2.65 4.66 4.3 5 6 C5.66 6 6.32 6 7 6 C7.12375 6.763125 7.2475 7.52625 7.375 8.3125 C7.88102792 11.20267136 7.88102792 11.20267136 10 14 C7.6875 13.8125 7.6875 13.8125 5 13 C3.3125 10.5625 3.3125 10.5625 2 8 C1.34 7.34 0.68 6.68 0 6 C0.66 6 1.32 6 2 6 C1.34 4.02 0.68 2.04 0 0 Z " fill="#898989" transform="translate(214,21)"/>
<path d="M0 0 C1.98 0 3.96 0 6 0 C6.12375 0.928125 6.2475 1.85625 6.375 2.8125 C6.81533082 6.13925235 6.81533082 6.13925235 9 9 C9.33 9.99 9.66 10.98 10 12 C9.01 12.99 8.02 13.98 7 15 C6.74605469 14.41992188 6.49210938 13.83984375 6.23046875 13.2421875 C4.2595089 8.76877302 2.23156912 4.35155978 0 0 Z " fill="#E5E5E5" transform="translate(180,20)"/>
<path d="M0 0 C2.31 0 4.62 0 7 0 C6.01 0.495 6.01 0.495 5 1 C5 5.29 5 9.58 5 14 C5.66 14.33 6.32 14.66 7 15 C4.69 15 2.38 15 0 15 C0.66 14.67 1.32 14.34 2 14 C2 9.71 2 5.42 2 1 C1.34 0.67 0.68 0.34 0 0 Z " fill="#F8F8F8" transform="translate(235,20)"/>
<path d="M0 0 C3.96 0 7.92 0 12 0 C12.99 3.3 13.98 6.6 15 10 C14.01 10.33 13.02 10.66 12 11 C11.01 8.36 10.02 5.72 9 3 C5.7 3 2.4 3 -1 3 C-0.67 2.01 -0.34 1.02 0 0 Z " fill="#040404" transform="translate(237,66)"/>
<path d="M0 0 C3.24208567 0.35049575 4.61527704 0.56221181 6.8125 3.0625 C7.204375 3.701875 7.59625 4.34125 8 5 C4.85658007 6.57170996 1.44228549 6.23175783 -2 6 C-2.99 5.67 -3.98 5.34 -5 5 C-5.33 5.99 -5.66 6.98 -6 8 C-6 5.69 -6 3.38 -6 1 C-5.67 1.99 -5.34 2.98 -5 4 C-3.68 4 -2.36 4 -1 4 C-0.67 2.68 -0.34 1.36 0 0 Z " fill="#213D24" transform="translate(48,58)"/>
<path d="M0 0 C4.29 0.33 8.58 0.66 13 1 C13 2.98 13 4.96 13 7 C12.01 7.33 11.02 7.66 10 8 C9.67 7.34 9.34 6.68 9 6 C7.35636866 5.27840576 5.68949614 4.60648579 4 4 C4 3.34 4 2.68 4 2 C2.68 2.33 1.36 2.66 0 3 C0 2.01 0 1.02 0 0 Z " fill="#019037" transform="translate(20,13)"/>
<path d="M0 0 C0.66 0 1.32 0 2 0 C1.34 2.31 0.68 4.62 0 7 C4.29 7 8.58 7 13 7 C12.01 7.495 12.01 7.495 11 8 C10.67 8.99 10.34 9.98 10 11 C10 10.34 10 9.68 10 9 C6.04 9 2.08 9 -2 9 C-3 5 -3 5 -1.6875 2.25 C-1.130625 1.5075 -0.57375 0.765 0 0 Z " fill="#7B7A76" transform="translate(28,43)"/>
<path d="M0 0 C2.64 0 5.28 0 8 0 C8 3 8 3 6.6875 4.5 C6.130625 4.995 5.57375 5.49 5 6 C4.443125 6.556875 3.88625 7.11375 3.3125 7.6875 C2.879375 8.120625 2.44625 8.55375 2 9 C2 8.34 2 7.68 2 7 C1.34 7 0.68 7 0 7 C0 4.69 0 2.38 0 0 Z " fill="#616161" transform="translate(264,20)"/>
<path d="M0 0 C2 3 2 3 1.875 6.5625 C1 10 1 10 -1.0625 11.4375 C-2.0215625 11.7159375 -2.0215625 11.7159375 -3 12 C-2.67 11.34 -2.34 10.68 -2 10 C-1.9310528 8.62657169 -1.91532292 7.24997898 -1.9375 5.875 C-1.958125 4.59625 -1.97875 3.3175 -2 2 C-4.16874252 2.50603992 -5.99967627 2.99983813 -8 4 C-7.625 2.0625 -7.625 2.0625 -7 0 C-4.27584084 -1.36207958 -2.87220643 -0.86166193 0 0 Z " fill="#0A0A0A" transform="translate(290,22)"/>
<path d="M0 0 C1.66666667 1.66666667 3.33333333 3.33333333 5 5 C5.763125 5.721875 6.52625 6.44375 7.3125 7.1875 C9 9 9 9 9 11 C9.66 11 10.32 11 11 11 C11 11.66 11 12.32 11 13 C8.19521985 12.91750647 6.46032756 12.39995673 4.33203125 10.55078125 C1.74407271 7.71693591 0.11946375 5.9357994 -0.375 2.0625 C-0.25125 1.381875 -0.1275 0.70125 0 0 Z " fill="#090909" transform="translate(158,24)"/>
<path d="M0 0 C2.0625 0.75 2.0625 0.75 4 2 C4.33 2.99 4.66 3.98 5 5 C3.75 6.5625 3.75 6.5625 2 8 C-0.1875 7.6875 -0.1875 7.6875 -2 7 C-2 6.34 -2 5.68 -2 5 C-2.66 5 -3.32 5 -4 5 C-4 4.34 -4 3.68 -4 3 C-3.34 3 -2.68 3 -2 3 C-2 2.34 -2 1.68 -2 1 C-1.34 0.67 -0.68 0.34 0 0 Z " fill="#F5B121" transform="translate(332,90)"/>
<path d="M0 0 C0.99 0 1.98 0 3 0 C2.938125 1.258125 2.87625 2.51625 2.8125 3.8125 C2.77329815 7.07294853 2.77329815 7.07294853 4.3125 9.875 C4.869375 10.24625 5.42625 10.6175 6 11 C6.99 11.66 7.98 12.32 9 13 C5.50355037 13.31785906 3.602598 13.39644605 0.625 11.4375 C-1.56710729 8.14933906 -1.35872645 5.87424565 -1 2 C-0.67 1.34 -0.34 0.68 0 0 Z " fill="#EAEAEA" transform="translate(280,22)"/>
<path d="M0 0 C0.66 0.33 1.32 0.66 2 1 C1.87625 1.721875 1.7525 2.44375 1.625 3.1875 C2.06001831 6.45013736 2.55561151 6.8041996 5 8.8125 C5.99 9.534375 6.98 10.25625 8 11 C7.67 11.99 7.34 12.98 7 14 C5 14 5 14 3.5625 12.625 C3.046875 12.08875 2.53125 11.5525 2 11 C1.01 10.34 0.02 9.68 -1 9 C-1.47114738 6.2572492 -1.17805784 3.80441103 -1 1 C-0.67 0.67 -0.34 0.34 0 0 Z " fill="#040404" transform="translate(224,20)"/>
<path d="M0 0 C0.598125 0.226875 1.19625 0.45375 1.8125 0.6875 C2.5 2.5 2.5 2.5 2.8125 4.6875 C1.625 6.5 1.625 6.5 -0.1875 7.6875 C-2.375 7.375 -2.375 7.375 -4.1875 6.6875 C-4.875 4.875 -4.875 4.875 -5.1875 2.6875 C-3.58493056 0.24147296 -2.95482043 -0.4221172 0 0 Z " fill="#F7B72F" transform="translate(324.1875,90.3125)"/>
<path d="M0 0 C0.66 0 1.32 0 2 0 C2 0.66 2 1.32 2 2 C7.61 2 13.22 2 19 2 C19 2.66 19 3.32 19 4 C12.73 4 6.46 4 0 4 C0 2.68 0 1.36 0 0 Z " fill="#000000" transform="translate(146,77)"/>
<path d="M0 0 C2.64 0 5.28 0 8 0 C8.5625 1.9375 8.5625 1.9375 9 4 C8 5 8 5 6.15234375 5.09765625 C4.1015625 5.06510417 2.05078125 5.03255208 0 5 C-0.33 4.34 -0.66 3.68 -1 3 C-0.67 2.01 -0.34 1.02 0 0 Z " fill="#1E4628" transform="translate(46,65)"/>
<path d="M0 0 C0.93065133 2.60582371 1.14917407 3.64198224 0.0625 6.25 C-0.288125 6.8275 -0.63875 7.405 -1 8 C-1.66 8 -2.32 8 -3 8 C-3 7.01 -3 6.02 -3 5 C-5.64 5 -8.28 5 -11 5 C-11 5.99 -11 6.98 -11 8 C-11.99 7.67 -12.98 7.34 -14 7 C-14 5.68 -14 4.36 -14 3 C-12.86111328 3.05220703 -12.86111328 3.05220703 -11.69921875 3.10546875 C-10.70535156 3.13253906 -9.71148437 3.15960938 -8.6875 3.1875 C-7.70136719 3.22230469 -6.71523438 3.25710937 -5.69921875 3.29296875 C-2.95425611 3.24278108 -2.95425611 3.24278108 -1.14453125 1.48828125 C-0.76683594 0.99714844 -0.38914062 0.50601563 0 0 Z " fill="#136E33" transform="translate(57,60)"/>
<path d="M0 0 C3.63286955 1.21095652 4.43006752 2.79359383 6.21484375 6.078125 C7.31643358 8.77455384 7.27986167 11.13141789 7 14 C6.01 13.67 5.02 13.34 4 13 C3.26919734 11.02253397 2.60578253 9.01927511 2 7 C1.34 6.01 0.68 5.02 0 4 C0 2.68 0 1.36 0 0 Z " fill="#0A0A0A" transform="translate(256,20)"/>
<path d="M0 0 C2.33294775 -0.04241723 4.66702567 -0.04092937 7 0 C8 1 8 1 8.0625 3.5625 C8.041875 4.366875 8.02125 5.17125 8 6 C6.68 6 5.36 6 4 6 C3.34 5.34 2.68 4.68 2 4 C1.01 4 0.02 4 -1 4 C-0.67 2.68 -0.34 1.36 0 0 Z " fill="#D6D6D6" transform="translate(226,20)"/>
<path d="M0 0 C0.66 0.33 1.32 0.66 2 1 C-4.525 7.8875 -4.525 7.8875 -9.75 8.125 C-10.4925 8.08375 -11.235 8.0425 -12 8 C-12.33 7.34 -12.66 6.68 -13 6 C-11.783125 5.566875 -10.56625 5.13375 -9.3125 4.6875 C-6.66921873 3.70971985 -4.55410462 2.72858542 -2.125 1.25 C-1.073125 0.63125 -1.073125 0.63125 0 0 Z " fill="#EFEEEE" transform="translate(50,87)"/>
<path d="M0 0 C0.66 0 1.32 0 2 0 C2 0.66 2 1.32 2 2 C6.95 2 11.9 2 17 2 C17 2.66 17 3.32 17 4 C11.39 4 5.78 4 0 4 C0 2.68 0 1.36 0 0 Z " fill="#000000" transform="translate(246,77)"/>
<path d="M0 0 C0.66 0 1.32 0 2 0 C2 0.66 2 1.32 2 2 C6.62 2 11.24 2 16 2 C16 2.66 16 3.32 16 4 C10.72 4 5.44 4 0 4 C0 2.68 0 1.36 0 0 Z " fill="#000000" transform="translate(264,77)"/>
<path d="M0 0 C1.32 0.33 2.64 0.66 4 1 C4 5.29 4 9.58 4 14 C3.34 14 2.68 14 2 14 C2 10.37 2 6.74 2 3 C0.68 3.33 -0.64 3.66 -2 4 C-1.34 2.68 -0.68 1.36 0 0 Z " fill="#000000" transform="translate(116,20)"/>
<path d="M0 0 C2 0.75 2 0.75 4 3.75 C4.99 4.41 5.98 5.07 7 5.75 C-0.4659249 6.11717663 -0.4659249 6.11717663 -3 4.375 C-4 2.75 -4 2.75 -4 0.75 C-2 -0.25 -2 -0.25 0 0 Z " fill="#1F4829" transform="translate(27,64.25)"/>
<path d="M0 0 C0 0.66 0 1.32 0 2 C-0.763125 2.4125 -1.52625 2.825 -2.3125 3.25 C-6.21011344 5.78798085 -7.42054567 8.99824869 -8.6875 13.375 C-8.790625 13.91125 -8.89375 14.4475 -9 15 C-9.66 15 -10.32 15 -11 15 C-10.74086272 8.65113652 -8.61254026 5.3311386 -4 1 C-2 0 -2 0 0 0 Z " fill="#101010" transform="translate(115,44)"/>
<path d="M0 0 C0.66 0 1.32 0 2 0 C3.66550691 4.99652074 3.63421165 10.05772683 2 15.0625 C1.505 16.0215625 1.505 16.0215625 1 17 C0.34 17 -0.32 17 -1 17 C-0.835 16.236875 -0.67 15.47375 -0.5 14.6875 C0.16562149 9.77854151 0.07920078 4.94564886 0 0 Z " fill="#E8E5E6" transform="translate(12,23)"/>
<path d="M0 0 C0.66 0.33 1.32 0.66 2 1 C-2.46825784 4.60636039 -6.32146365 7.58036591 -12 9 C-12.33 8.01 -12.66 7.02 -13 6 C-11.96939453 5.60167969 -11.96939453 5.60167969 -10.91796875 5.1953125 C-10.01691406 4.84210938 -9.11585937 4.48890625 -8.1875 4.125 C-7.29417969 3.77695313 -6.40085937 3.42890625 -5.48046875 3.0703125 C-2.82288409 2.01167845 -2.82288409 2.01167845 0 0 Z " fill="#E7E4E5" transform="translate(51,82)"/>
<path d="M0 0 C0.66 0 1.32 0 2 0 C2 0.66 2 1.32 2 2 C6.29 2 10.58 2 15 2 C15 2.66 15 3.32 15 4 C10.05 4 5.1 4 0 4 C0 2.68 0 1.36 0 0 Z " fill="#000000" transform="translate(223,77)"/>
<path d="M0 0 C-1 3 -1 3 -2 4 C-5.06481021 4.1613058 -7.05549278 3.98150241 -10 3 C-10 2.01 -10 1.02 -10 0 C-6.30581799 -1.231394 -3.7943739 -0.64432764 0 0 Z " fill="#C7C4C3" transform="translate(45,38)"/>
<path d="M0 0 C1.32 0 2.64 0 4 0 C4 4.29 4 8.58 4 13 C3.34 13 2.68 13 2 13 C2 9.37 2 5.74 2 2 C1.34 2 0.68 2 0 2 C-0.33 2.66 -0.66 3.32 -1 4 C-0.67 2.68 -0.34 1.36 0 0 Z " fill="#030303" transform="translate(194,21)"/>
<path d="M0 0 C0.99 0.33 1.98 0.66 3 1 C3 5.29 3 9.58 3 14 C2.34 14 1.68 14 1 14 C1 10.37 1 6.74 1 3 C0.01 3.33 -0.98 3.66 -2 4 C-1.34 2.68 -0.68 1.36 0 0 Z " fill="#000000" transform="translate(171,20)"/>
<path d="M0 0 C1.98 0.495 1.98 0.495 4 1 C4.02698189 2.62490954 4.04638757 4.24994633 4.0625 5.875 C4.07410156 6.77992187 4.08570313 7.68484375 4.09765625 8.6171875 C4 11 4 11 3 13 C2.34 13 1.68 13 1 13 C1 10.03 1 7.06 1 4 C0.34 3.67 -0.32 3.34 -1 3 C-0.67 2.01 -0.34 1.02 0 0 Z " fill="#020202" transform="translate(153,21)"/>
<path d="M0 0 C2.475 0.99 2.475 0.99 5 2 C5.28571429 9.42857143 5.28571429 9.42857143 3 13 C2.34 12.67 1.68 12.34 1 12 C1.33 9.03 1.66 6.06 2 3 C1.34 3 0.68 3 0 3 C0 2.01 0 1.02 0 0 Z " fill="#020202" transform="translate(146,20)"/>
<path d="M0 0 C1.09054687 0.02320312 2.18109375 0.04640625 3.3046875 0.0703125 C4.40039062 0.08835937 5.49609375 0.10640625 6.625 0.125 C7.46804688 0.14820312 8.31109375 0.17140625 9.1796875 0.1953125 C8.8496875 1.1853125 8.5196875 2.1753125 8.1796875 3.1953125 C6.76535544 3.4189462 5.34801132 3.62357726 3.9296875 3.8203125 C3.14078125 3.93632813 2.351875 4.05234375 1.5390625 4.171875 C-1.14183709 4.19850645 -2.54725339 3.56123334 -4.8203125 2.1953125 C-2.8203125 0.1953125 -2.8203125 0.1953125 0 0 Z " fill="#FBECCC" transform="translate(343.8203125,84.8046875)"/>
<path d="M0 0 C0.804375 0.495 0.804375 0.495 1.625 1 C4.05052826 2.20211302 4.05052826 2.20211302 7.125 2 C8.07375 2 9.0225 2 10 2 C10.66 2.66 11.32 3.32 12 4 C9.35541621 5.32229189 7.32238699 5.09677194 4.375 5.0625 C3.37210938 5.05347656 2.36921875 5.04445313 1.3359375 5.03515625 C0.56507812 5.02355469 -0.20578125 5.01195312 -1 5 C-0.67 3.35 -0.34 1.7 0 0 Z " fill="#B3B1AF" transform="translate(29,45)"/>
<path d="M0 0 C1.32 0.33 2.64 0.66 4 1 C4 5.29 4 9.58 4 14 C3.34 14 2.68 14 2 14 C2 10.37 2 6.74 2 3 C1.34 3 0.68 3 0 3 C0 2.01 0 1.02 0 0 Z " fill="#000000" transform="translate(294,20)"/>
<path d="M0 0 C0.99 0 1.98 0 3 0 C3 0.66 3 1.32 3 2 C6.3 2.33 9.6 2.66 13 3 C13 3.99 13 4.98 13 6 C9.37 5.67 5.74 5.34 2 5 C1.34 3.35 0.68 1.7 0 0 Z " fill="#174F28" transform="translate(16,15)"/>
<path d="M0 0 C0 4.02046842 -1.26140024 5.11726341 -4 8 C-9.08695652 11.17934783 -9.08695652 11.17934783 -12.1875 10.5703125 C-12.785625 10.38210937 -13.38375 10.19390625 -14 10 C-13.24074219 9.61328125 -12.48148438 9.2265625 -11.69921875 8.828125 C-10.70535156 8.30734375 -9.71148437 7.7865625 -8.6875 7.25 C-7.70136719 6.73953125 -6.71523437 6.2290625 -5.69921875 5.703125 C-3.04549724 4.02870737 -1.66897803 2.62023855 0 0 Z " fill="#060606" transform="translate(222,69)"/>
<path d="M0 0 C0.66 0 1.32 0 2 0 C2.50615298 1.26839526 3.00469099 2.53983102 3.5 3.8125 C3.91765625 4.87404297 3.91765625 4.87404297 4.34375 5.95703125 C5 8 5 8 5 11 C4.01 11 3.02 11 2 11 C1.47007308 9.54494642 0.9513211 8.08581873 0.4375 6.625 C0.14746094 5.81289063 -0.14257812 5.00078125 -0.44140625 4.1640625 C-1 2 -1 2 0 0 Z " fill="#040404" transform="translate(242,52)"/>
<path d="M0 0 C0.66 0.99 1.32 1.98 2 3 C0.71937515 4.7074998 -0.61767557 6.37373596 -2 8 C-2.66 8 -3.32 8 -4 8 C-4 8.66 -4 9.32 -4 10 C-4.66 10 -5.32 10 -6 10 C-5.58578031 5.16743695 -3.53586014 3.17320782 0 0 Z " fill="#C3C3C2" transform="translate(8,7)"/>
<path d="M0 0 C1.305239 3.91571701 0.32239848 5.03892997 -1.4375 8.6875 C-1.91058594 9.68136719 -2.38367188 10.67523438 -2.87109375 11.69921875 C-3.24363281 12.45847656 -3.61617187 13.21773437 -4 14 C-5.32 13.67 -6.64 13.34 -8 13 C-7.56042969 12.61199219 -7.12085938 12.22398438 -6.66796875 11.82421875 C-4.6807411 9.65083395 -3.58630548 7.46339249 -2.3125 4.8125 C-1.87550781 3.91144531 -1.43851563 3.01039062 -0.98828125 2.08203125 C-0.66214844 1.39496094 -0.33601562 0.70789062 0 0 Z " fill="#0D0D0D" transform="translate(233,63)"/>
<path d="M0 0 C2 2 2 2 2 5 C-1.47325181 6.1577506 -4.36067448 6.06866652 -8 6 C-8.33 5.01 -8.66 4.02 -9 3 C-8.34 2.34 -7.68 1.68 -7 1 C-6.67 1.66 -6.34 2.32 -6 3 C-4.35 3 -2.7 3 -1 3 C-0.67 2.01 -0.34 1.02 0 0 Z " fill="#D7D7D7" transform="translate(150,29)"/>
<path d="M0 0 C0.99 0 1.98 0 3 0 C3 3.96 3 7.92 3 12 C2.01 12 1.02 12 0 12 C0 8 0 4 0 0 Z " fill="#000000" transform="translate(245,21)"/>
<path d="M0 0 C0.99 0 1.98 0 3 0 C3 3.96 3 7.92 3 12 C2.01 12 1.02 12 0 12 C0 8 0 4 0 0 Z " fill="#000000" transform="translate(88,21)"/>
<path d="M0 0 C0.99 0.33 1.98 0.66 3 1 C3 5.29 3 9.58 3 14 C2.34 14 1.68 14 1 14 C0.67 9.38 0.34 4.76 0 0 Z " fill="#000000" transform="translate(99,20)"/>
<path d="M0 0 C0.66 0.33 1.32 0.66 2 1 C1.34 3.31 0.68 5.62 0 8 C-0.66 7.01 -1.32 6.02 -2 5 C-3.49743119 6.49743119 -3.33202693 7.98824239 -3.5625 10.0625 C-3.706875 11.361875 -3.85125 12.66125 -4 14 C-4.33 14 -4.66 14 -5 14 C-5.78774617 5.96498906 -5.78774617 5.96498906 -2.5 1.9375 C-1.2625 0.9784375 -1.2625 0.9784375 0 0 Z " fill="#FDEDCC" transform="translate(321,64)"/>
<path d="M0 0 C0.33 1.32 0.66 2.64 1 4 C-0.43359375 5.921875 -0.43359375 5.921875 -2.4375 7.75 C-3.09621094 8.36359375 -3.75492188 8.9771875 -4.43359375 9.609375 C-5.20896484 10.29773438 -5.20896484 10.29773438 -6 11 C-6.66 10.34 -7.32 9.68 -8 9 C-5.36 6.03 -2.72 3.06 0 0 Z " fill="#DBD8D8" transform="translate(60,72)"/>
<path d="M0 0 C2.97 0 5.94 0 9 0 C9 1.32 9 2.64 9 4 C8.34 4 7.68 4 7 4 C7 3.34 7 2.68 7 2 C6.01 2 5.02 2 4 2 C3.34 3.32 2.68 4.64 2 6 C0 2.25 0 2.25 0 0 Z " fill="#FCE8BD" transform="translate(339,71)"/>
<path d="M0 0 C2.1875 0.3125 2.1875 0.3125 4 1 C3.67 2.32 3.34 3.64 3 5 C1.35 5.33 -0.3 5.66 -2 6 C-2.33 5.01 -2.66 4.02 -3 3 C-1.75 1.4375 -1.75 1.4375 0 0 Z " fill="#0B7B36" transform="translate(33,63)"/>
<path d="M0 0 C0.66 0.66 1.32 1.32 2 2 C1.625 4.125 1.625 4.125 1 6 C0.4225 5.319375 -0.155 4.63875 -0.75 3.9375 C-1.86375 2.9784375 -1.86375 2.9784375 -3 2 C-5.10820797 2.3185177 -5.10820797 2.3185177 -7 3 C-7.66 2.34 -8.32 1.68 -9 1 C-5.60805912 -0.60174986 -3.55768883 -1.4721471 0 0 Z " fill="#D9D7D7" transform="translate(67,8)"/>
<path d="M0 0 C2.0625 0.75 2.0625 0.75 4 2 C4.33 2.99 4.66 3.98 5 5 C4.01 5.99 3.02 6.98 2 8 C1.01 7.67 0.02 7.34 -1 7 C-1 6.34 -1 5.68 -1 5 C0.32 5 1.64 5 3 5 C2.67 4.34 2.34 3.68 2 3 C0.68 3 -0.64 3 -2 3 C-2 2.34 -2 1.68 -2 1 C-1.34 0.67 -0.68 0.34 0 0 Z " fill="#F3B024" transform="translate(351,90)"/>
<path d="M0 0 C0.33 0.99 0.66 1.98 1 3 C-2 4 -2 4 -5.4375 3.9375 C-8.76400349 3.99585971 -10.26464408 4.24937221 -13 6 C-13 4.68 -13 3.36 -13 2 C-12.14535156 1.93941406 -11.29070313 1.87882812 -10.41015625 1.81640625 C-8.75306641 1.69072266 -8.75306641 1.69072266 -7.0625 1.5625 C-5.96035156 1.48128906 -4.85820313 1.40007813 -3.72265625 1.31640625 C-1.08890097 1.29581916 -1.08890097 1.29581916 0 0 Z " fill="#187539" transform="translate(55,50)"/>
<path d="M0 0 C1.32 0 2.64 0 4 0 C3.67 1.98 3.34 3.96 3 6 C1.35 5.67 -0.3 5.34 -2 5 C-1 2 -1 2 0 0 Z " fill="#145B2C" transform="translate(33,17)"/>
<path d="M0 0 C2.475 0.99 2.475 0.99 5 2 C5 4.64 5 7.28 5 10 C4.34 9.67 3.68 9.34 3 9 C2.375 5.9375 2.375 5.9375 2 3 C1.34 3 0.68 3 0 3 C0 2.01 0 1.02 0 0 Z " fill="#030303" transform="translate(163,20)"/>
<path d="M0 0 C3.7910119 1.44950455 7.3874638 3.15172566 11 5 C10.67 5.99 10.34 6.98 10 8 C8.51714758 7.04737966 7.03881799 6.08771595 5.5625 5.125 C4.73878906 4.59132813 3.91507813 4.05765625 3.06640625 3.5078125 C1 2 1 2 0 0 Z " fill="#E1DEDE" transform="translate(27,82)"/>
<path d="M0 0 C0 3.56229451 -0.76109009 4.41109679 -2.875 7.1875 C-3.40867187 7.90292969 -3.94234375 8.61835938 -4.4921875 9.35546875 C-4.98976563 9.89816406 -5.48734375 10.44085938 -6 11 C-6.66 11 -7.32 11 -8 11 C-6.52670958 5.99081256 -3.72484762 3.48192278 0 0 Z " fill="#28231F" transform="translate(13,6)"/>
<path d="M0 0 C1.15518918 0.90484792 2.29885406 1.8244206 3.4375 2.75 C4.07558594 3.26046875 4.71367188 3.7709375 5.37109375 4.296875 C7.18810554 6.19667629 7.60423197 7.43586908 8 10 C7.01 10 6.02 10 5 10 C4.731875 9.4225 4.46375 8.845 4.1875 8.25 C3.04946754 5.94252104 3.04946754 5.94252104 1.375 3.875 C0 2 0 2 0 0 Z " fill="#28221F" transform="translate(67,7)"/>
<path d="M0 0 C0.66 0 1.32 0 2 0 C2.66 0.99 3.32 1.98 4 3 C4.99 3.33 5.98 3.66 7 4 C7 3.34 7 2.68 7 2 C7.99 2 8.98 2 10 2 C10 2.66 10 3.32 10 4 C7.04335481 5.4783226 4.25770263 5.06032783 1 5 C0.67 3.35 0.34 1.7 0 0 Z " fill="#E1E1E1" transform="translate(224,30)"/>
<path d="M0 0 C0.99 0.33 1.98 0.66 3 1 C3.33 3.31 3.66 5.62 4 8 C1 7 1 7 0 6 C-0.04080783 4.00041636 -0.04254356 1.99954746 0 0 Z " fill="#971313" transform="translate(42,25)"/>
<path d="M0 0 C2.64 0 5.28 0 8 0 C8 0.99 8 1.98 8 3 C5.36 3 2.72 3 0 3 C0 2.01 0 1.02 0 0 Z " fill="#136530" transform="translate(43,75)"/>
<path d="M0 0 C2.64 0.33 5.28 0.66 8 1 C7.67 2.32 7.34 3.64 7 5 C7 4.34 7 3.68 7 3 C4.36 3 1.72 3 -1 3 C-0.67 2.01 -0.34 1.02 0 0 Z " fill="#01933A" transform="translate(44,72)"/>
<path d="M0 0 C3.3 0.33 6.6 0.66 10 1 C10 1.66 10 2.32 10 3 C6.7 3 3.4 3 0 3 C0 2.01 0 1.02 0 0 Z " fill="#000000" transform="translate(258,34)"/>
<path d="M0 0 C3.3 0.33 6.6 0.66 10 1 C10 1.66 10 2.32 10 3 C6.7 3 3.4 3 0 3 C0 2.01 0 1.02 0 0 Z " fill="#000000" transform="translate(243,34)"/>
<path d="M0 0 C3.3 0.33 6.6 0.66 10 1 C10 1.66 10 2.32 10 3 C6.7 3 3.4 3 0 3 C0 2.01 0 1.02 0 0 Z " fill="#000000" transform="translate(86,34)"/>
<path d="M0 0 C2.475 0.495 2.475 0.495 5 1 C5 1.66 5 2.32 5 3 C5.66 3 6.32 3 7 3 C7 3.66 7 4.32 7 5 C5.02 5.33 3.04 5.66 1 6 C1.33 5.01 1.66 4.02 2 3 C1.34 2.67 0.68 2.34 0 2 C0 1.34 0 0.68 0 0 Z " fill="#000000" transform="translate(201,21)"/>
<path d="M0 0 C2.475 0.495 2.475 0.495 5 1 C5 1.66 5 2.32 5 3 C5.66 3 6.32 3 7 3 C7 3.66 7 4.32 7 5 C5.02 5.33 3.04 5.66 1 6 C1.33 5.01 1.66 4.02 2 3 C1.34 2.67 0.68 2.34 0 2 C0 1.34 0 0.68 0 0 Z " fill="#000000" transform="translate(123,21)"/>
<path d="M0 0 C0.99 0.33 1.98 0.66 3 1 C3 2.32 3 3.64 3 5 C1.35 4.67 -0.3 4.34 -2 4 C-2 3.01 -2 2.02 -2 1 C-1.34 0.67 -0.68 0.34 0 0 Z " fill="#F4BB41" transform="translate(332,90)"/>
<path d="M0 0 C0.66 0.66 1.32 1.32 2 2 C4.57061311 2.64767793 4.57061311 2.64767793 7 3 C7.33 2.01 7.66 1.02 8 0 C8.33 1.32 8.66 2.64 9 4 C5.33694766 4.74926071 2.57644848 5.2380014 -1 4 C-0.67 2.68 -0.34 1.36 0 0 Z " fill="#908C8A" transform="translate(36,39)"/>
<path d="M0 0 C1.1446875 1.175625 1.1446875 1.175625 2.3125 2.375 C4.90891805 5.07257717 4.90891805 5.07257717 8 7 C2.56193353 7.36253776 2.56193353 7.36253776 0.0625 5.75 C-1 4 -1 4 -0.6875 1.8125 C-0.460625 1.214375 -0.23375 0.61625 0 0 Z " fill="#F7F7F7" transform="translate(281,28)"/>
<path d="M0 0 C2.475 0.495 2.475 0.495 5 1 C5.33 2.32 5.66 3.64 6 5 C4.35 5.33 2.7 5.66 1 6 C1.33 4.68 1.66 3.36 2 2 C1.34 2 0.68 2 0 2 C0 1.34 0 0.68 0 0 Z " fill="#050505" transform="translate(301,21)"/>
<path d="M0 0 C0.99 0.33 1.98 0.66 3 1 C2.5020163 4.73487777 2.12508244 6.81237635 0 10 C-1.231394 6.30581799 -0.64432764 3.7943739 0 0 Z " fill="#000000" transform="translate(188,20)"/>
<path d="M0 0 C1.32 0.99 2.64 1.98 4 3 C2.84826645 5.46800047 1.95216435 7.04783565 0 9 C0 6 0 3 0 0 Z " fill="#E2DFE0" transform="translate(69,12)"/>
<path d="M0 0 C2.97 0.495 2.97 0.495 6 1 C5.34 2.32 4.68 3.64 4 5 C2.35 5 0.7 5 -1 5 C-0.67 3.35 -0.34 1.7 0 0 Z " fill="#145D2D" transform="translate(43,17)"/>
<path d="M0 0 C4.875 4.625 4.875 4.625 6 8 C5.01 8 4.02 8 3 8 C0.89229241 5.11165997 0 3.61537605 0 0 Z " fill="#E9E7E7" transform="translate(14,65)"/>
<path d="M0 0 C1.98 0.495 1.98 0.495 4 1 C4 1.66 4 2.32 4 3 C3.34 3 2.68 3 2 3 C1.67 4.65 1.34 6.3 1 8 C0.34 7.34 -0.32 6.68 -1 6 C-0.625 2.875 -0.625 2.875 0 0 Z " fill="#DCDCDC" transform="translate(240,49)"/>
<path d="M0 0 C-0.33 0.99 -0.66 1.98 -1 3 C-3.31 3 -5.62 3 -8 3 C-8 2.34 -8 1.68 -8 1 C-5.29120665 -0.35439668 -2.99066732 -0.06501451 0 0 Z " fill="#A4A2A0" transform="translate(50,47)"/>
<path d="M0 0 C2.97 0.33 5.94 0.66 9 1 C9 1.66 9 2.32 9 3 C6.03 3 3.06 3 0 3 C0 2.01 0 1.02 0 0 Z " fill="#000000" transform="translate(294,34)"/>
<path d="M0 0 C2.97 0.33 5.94 0.66 9 1 C9 1.66 9 2.32 9 3 C6.03 3 3.06 3 0 3 C0 2.01 0 1.02 0 0 Z " fill="#000000" transform="translate(170,34)"/>
<path d="M0 0 C2.97 0.33 5.94 0.66 9 1 C9 1.66 9 2.32 9 3 C6.03 3 3.06 3 0 3 C0 2.01 0 1.02 0 0 Z " fill="#000000" transform="translate(152,34)"/>
<path d="M0 0 C2.97 0.33 5.94 0.66 9 1 C9 1.66 9 2.32 9 3 C6.03 3 3.06 3 0 3 C0 2.01 0 1.02 0 0 Z " fill="#000000" transform="translate(98,34)"/>
<path d="M0 0 C0.66 0 1.32 0 2 0 C2.33 2.31 2.66 4.62 3 7 C1.68 7 0.36 7 -1 7 C-1.125 2.25 -1.125 2.25 0 0 Z " fill="#131313" transform="translate(241,19)"/>
<path d="M0 0 C2.40072955 2.88087546 4.47291037 5.56404834 6 9 C5.01 9 4.02 9 3 9 C-0.22265625 3.7265625 -0.22265625 3.7265625 -1 2 C-0.67 1.34 -0.34 0.68 0 0 Z " fill="#DCDCDB" transform="translate(4,15)"/>
<path d="M0 0 C0.66 0 1.32 0 2 0 C2 0.66 2 1.32 2 2 C3.65 2.33 5.3 2.66 7 3 C5.1875 4.0625 5.1875 4.0625 3 5 C2.01 4.67 1.02 4.34 0 4 C0 2.68 0 1.36 0 0 Z " fill="#FCE6B8" transform="translate(339,79)"/>
<path d="M0 0 C-3.625 3 -3.625 3 -7 3 C-9.1875 2 -9.1875 2 -11 1 C-3.57142857 -1.42857143 -3.57142857 -1.42857143 0 0 Z " fill="#8E8E8E" transform="translate(212,75)"/>
<path d="M0 0 C0.99 0 1.98 0 3 0 C3 1.65 3 3.3 3 5 C1.68 5 0.36 5 -1 5 C-0.67 3.35 -0.34 1.7 0 0 Z " fill="#058A38" transform="translate(44,57)"/>
<path d="M0 0 C1.875 0.25 1.875 0.25 4 1 C5.25 3.0625 5.25 3.0625 6 5 C3 5 3 5 1.3125 3.625 C0 2 0 2 0 0 Z " fill="#000000" transform="translate(201,28)"/>
<path d="M0 0 C1.875 0.25 1.875 0.25 4 1 C5.25 3.0625 5.25 3.0625 6 5 C3 5 3 5 1.3125 3.625 C0 2 0 2 0 0 Z " fill="#000000" transform="translate(123,28)"/>
<path d="M0 0 C0 1.98 0 3.96 0 6 C-0.99 6.33 -1.98 6.66 -3 7 C-3.6875 5.1875 -3.6875 5.1875 -4 3 C-1.64285714 0 -1.64285714 0 0 0 Z " fill="#8F1615" transform="translate(38,25)"/>
<path d="M0 0 C1.32 0 2.64 0 4 0 C4 0.99 4 1.98 4 3 C4.66 3 5.32 3 6 3 C6 3.66 6 4.32 6 5 C4.68 5 3.36 5 2 5 C1.34 3.35 0.68 1.7 0 0 Z " fill="#030303" transform="translate(250,21)"/>
<path d="M0 0 C1.32 0 2.64 0 4 0 C4 0.99 4 1.98 4 3 C4.66 3 5.32 3 6 3 C6 3.66 6 4.32 6 5 C4.68 5 3.36 5 2 5 C1.34 3.35 0.68 1.7 0 0 Z " fill="#030303" transform="translate(93,21)"/>
<path d="M0 0 C1.32 0.33 2.64 0.66 4 1 C4 2.98 4 4.96 4 7 C3.34 7 2.68 7 2 7 C0.5393715 4.35261084 0 3.10551666 0 0 Z " fill="#060606" transform="translate(108,20)"/>
<path d="M0 0 C-2.475 1.485 -2.475 1.485 -5 3 C-6.32 2.01 -7.64 1.02 -9 0 C-5.62182575 -0.84454356 -3.32534757 -1.10844919 0 0 Z " fill="#029139" transform="translate(36,73)"/>
<path d="M0 0 C0.33 0.66 0.66 1.32 1 2 C-0.65 2.33 -2.3 2.66 -4 3 C-4 2.34 -4 1.68 -4 1 C-4.99 0.67 -5.98 0.34 -7 0 C-4.30234372 -1.34882814 -2.84835666 -0.80338265 0 0 Z " fill="#ABABAB" transform="translate(122,43)"/>
<path d="M0 0 C1.32 0.33 2.64 0.66 4 1 C4 1.66 4 2.32 4 3 C4.66 3 5.32 3 6 3 C6 3.66 6 4.32 6 5 C4.68 5 3.36 5 2 5 C1.34 3.35 0.68 1.7 0 0 Z " fill="#000000" transform="translate(228,21)"/>
<path d="M0 0 C0.66 0 1.32 0 2 0 C1.67 1.65 1.34 3.3 1 5 C1.66 5 2.32 5 3 5 C3 5.66 3 6.32 3 7 C1.68 7 0.36 7 -1 7 C-0.67 4.69 -0.34 2.38 0 0 Z " fill="#000000" transform="translate(84,19)"/>
<path d="M0 0 C1.32 0.33 2.64 0.66 4 1 C4 2.98 4 4.96 4 7 C3.34 7 2.68 7 2 7 C1.34 4.69 0.68 2.38 0 0 Z " fill="#F4F4F4" transform="translate(217,20)"/>
<path d="M0 0 C0.66 0 1.32 0 2 0 C1.1875 2.9375 1.1875 2.9375 0 6 C-0.99 6.33 -1.98 6.66 -3 7 C-1.125 1.125 -1.125 1.125 0 0 Z " fill="#71726C" transform="translate(28,43)"/>
<path d="M0 0 C0.33 0.66 0.66 1.32 1 2 C1.66 2.33 2.32 2.66 3 3 C-0.3 3.33 -3.6 3.66 -7 4 C-6.67 3.34 -6.34 2.68 -6 2 C-4.34178227 1.62690101 -2.67422986 1.29299023 -1 1 C-0.67 0.67 -0.34 0.34 0 0 Z " fill="#194826" transform="translate(54,17)"/>
<path d="M0 0 C0.66 0 1.32 0 2 0 C1.01 2.97 0.02 5.94 -1 9 C-1.66 7.68 -2.32 6.36 -3 5 C-1.75 2.25 -1.75 2.25 0 0 Z " fill="#393531" transform="translate(71,18)"/>
<path d="M0 0 C1.65 0 3.3 0 5 0 C5 0.66 5 1.32 5 2 C3.35 1.67 1.7 1.34 0 1 C0 0.67 0 0.34 0 0 Z " fill="#BD9B54" transform="translate(324,89)"/>
<path d="M0 0 C1.98 0.495 1.98 0.495 4 1 C2.35 1.33 0.7 1.66 -1 2 C-0.67 1.34 -0.34 0.68 0 0 Z " fill="#B0955C" transform="translate(338,89)"/>
<path d="M0 0 C1.32 0.33 2.64 0.66 4 1 C2.68 1.33 1.36 1.66 0 2 C0 1.34 0 0.68 0 0 Z " fill="#B29659" transform="translate(347,89)"/>
<path d="M0 0 C1.98 0.495 1.98 0.495 4 1 C2.35 1.33 0.7 1.66 -1 2 C-0.67 1.34 -0.34 0.68 0 0 Z " fill="#FBD78A" transform="translate(341,69)"/>
<path d="M0 0 C2 1 2 1 2 1 Z " fill="#C49E4E" transform="translate(330,89)"/>
<path d="" fill="#FFFFFF" transform="translate(0,0)"/>
<path d="" fill="#C19E50" transform="translate(0,0)"/>
<path d="" fill="#C19E50" transform="translate(0,0)"/>
<path d="" fill="#FBD584" transform="translate(0,0)"/>
<path d="" fill="#FCE2AB" transform="translate(0,0)"/>
</svg>
